<?xml version="1.0" encoding="UTF-8"?>
<svg id="Calque_2" data-name="Calque 2" xmlns="http://www.w3.org/2000/svg" viewBox="0 0 75.56 73.09">
  <defs>
    <style>
      .cls-1 {
        fill: #f7d05e;
      }

      .cls-2 {
        fill: #fffdf7;
      }

      .cls-3 {
        fill: #fffdf9;
      }

      .cls-4 {
        fill: #fffdfa;
      }

      .cls-5 {
        fill: #fefbf2;
      }

      .cls-6 {
        fill: #fbe6ab;
      }
    </style>
  </defs>
  <g id="Calque_1-2" data-name="Calque 1">
    <path class="cls-1" d="m28.98,72.04c-13.45-2.84-24.3-9.11-28.09-23.27-2.76-10.31,1.14-19.32,7.83-27.03C20.12,8.6,34.04-.27,52.01,0c12.85.2,20.79,5.01,23.11,17.81.62,4.44.52,8.89.06,13.34-1.15,18.06-17.69,37.85-34.1,40.8-4.03.74-8.07.59-12.1.08Z"/>
    <path class="cls-6" d="m28.98,72.04c4.03-.03,8.07-.05,12.1-.08-4.03,1.47-8.06,1.51-12.1.08Z"/>
    <path class="cls-4" d="m23.72,45.09c-.38-.21-1.19-.48-1.76-1.01-2.29-2.17-4.51-4.42-6.73-6.66-.83-.84-1.74-1.86-.7-2.99.99-1.09,2.06-.43,3.07.32,2.22,1.63,3.45,5.37,6.46,4.92,3.33-.5,5-4.1,7.39-6.34,3.63-3.41,7.08-7.02,10.61-10.55,1.34-1.34,3.05-2.88,4.63-1.14,1.24,1.37-.69,2.62-1.68,3.63-5.97,6.02-11.97,12.01-17.97,17.99-.81.81-1.58,1.74-3.31,1.84Z"/>
    <path class="cls-3" d="m54.63,22.02c1.96.61,1.76,2.05.82,3.05-3.97,4.17-8.08,8.21-12.18,12.26-.77.76-1.83.82-2.73.26-.92-.57-.69-1.56-.13-2.13,4.25-4.36,8.55-8.67,12.87-12.96.31-.31.9-.33,1.35-.48Z"/>
    <path class="cls-2" d="m46.5,43.26c-1.43-.17-2.08-1.35-1.33-2.39,2.9-4.02,6.57-7.37,10.35-10.54.99-.83,2.27-.27,2.32,1.38.04,1.09-10.13,11.49-11.34,11.56Z"/>
    <path class="cls-5" d="m57.92,41.55c.01,1.43-5.38,6.55-6.91,6.52-1.1-.02-1.91-.38-1.92-1.69,0-1.3,5.47-6.53,6.88-6.54,1.14,0,1.88.47,1.94,1.7Z"/>
  </g>
</svg>