<?xml version="1.0" encoding="UTF-8"?>
<svg id="Calque_2" data-name="Calque 2" xmlns="http://www.w3.org/2000/svg" viewBox="0 0 98.61 75.53">
  <defs>
    <style>
      .cls-1 {
        fill: #fff;
      }

      .cls-2 {
        fill: #7dc7f6;
      }

      .cls-3 {
        fill: #7cc6f5;
      }

      .cls-4 {
        fill: #98d2f8;
      }

      .cls-5 {
        fill: #97d2f8;
      }

      .cls-6 {
        fill: #9ed5f8;
      }

      .cls-7 {
        fill: #9fd5f8;
      }

      .cls-8 {
        fill: #86caf6;
      }

      .cls-9 {
        fill: #b4defa;
      }

      .cls-10 {
        fill: #b4dffa;
      }

      .cls-11 {
        fill: #b5dffa;
      }

      .cls-12 {
        fill: #89ccf7;
      }

      .cls-13 {
        fill: #b7e0fa;
      }

      .cls-14 {
        fill: #9cd4f8;
      }

      .cls-15 {
        fill: #b8e0fa;
      }

      .cls-16 {
        fill: #9dd4f8;
      }

      .cls-17 {
        fill: #a0d6f8;
      }

      .cls-18 {
        fill: #a0d6f9;
      }

      .cls-19 {
        fill: #90cff7;
      }

      .cls-20 {
        fill: #8fcef7;
      }

      .cls-21 {
        fill: #b3defa;
      }

      .cls-22 {
        fill: #b6e0fa;
      }

      .cls-23 {
        fill: #b6dffa;
      }

      .cls-24 {
        fill: #cce9fc;
      }

      .cls-25 {
        fill: #a4d7f9;
      }

      .cls-26 {
        fill: #a4d8f9;
      }

      .cls-27 {
        fill: #a6d8f9;
      }

      .cls-28 {
        fill: #aadaf9;
      }

      .cls-29 {
        fill: #a9daf9;
      }

      .cls-30 {
        fill: #b0ddfa;
      }

      .cls-31 {
        fill: #addbf9;
      }

      .cls-32 {
        fill: #afdcfa;
      }

      .cls-33 {
        fill: #acdbf9;
      }

      .cls-34 {
        fill: #b1ddfa;
      }

      .cls-35 {
        fill: #c0e4fb;
      }

      .cls-36 {
        fill: #a3d7f9;
      }

      .cls-37 {
        fill: #a5d8f9;
      }

      .cls-38 {
        fill: #bde2fb;
      }

      .cls-39 {
        fill: #bee3fb;
      }

      .cls-40 {
        fill: #cbe9fc;
      }

      .cls-41 {
        fill: #d0ebfc;
      }

      .cls-42 {
        fill: #c4e6fb;
      }

      .cls-43 {
        fill: #c4e5fb;
      }

      .cls-44 {
        fill: #aedcfa;
      }

      .cls-45 {
        fill: #c7e7fb;
      }

      .cls-46 {
        fill: #a7d9f9;
      }

      .cls-47 {
        fill: #6cbff4;
      }

      .cls-48 {
        fill: #a1d6f9;
      }

      .cls-49 {
        fill: #94d1f8;
      }

      .cls-50 {
        fill: #95d1f8;
      }

      .cls-51 {
        fill: #9ad3f8;
      }

      .cls-52 {
        fill: #38a8ef;
      }

      .cls-53 {
        fill: #73c2f5;
      }

      .cls-54 {
        fill: #76c3f5;
      }

      .cls-55 {
        fill: #78c4f5;
      }
    </style>
  </defs>
  <g id="Calque_1-2" data-name="Calque 1">
    <path class="cls-52" d="m40.39,74.64c-2.01,0-4.02,0-6.03,0-.16-.28-.24-.55.12-.76.37-.18.85.01,1.19-.37-.13-.39-.72-.48-.67-.98.03-.5.35-.69.78-.68.82.01,1.31-.44,1.73-1.23-.83,1.21-1.17,1.34-2.15.88-.33-1.06-1.66-.78-1.93-1.49.39.24.91.75,1.58,1.04.34.15.23.47.06.74-.18.23-.39.41-.67.5-1.97.48-3.83.18-5.63-.7-.31-.47-.08-.89.36-.8,1.21.25,2.44.05,3.22.18-.96.05-2.31-.48-3.72-.11-.64-.32-1.25-.29-1.84.13-1.29.34-2.11-.75-3.19-1.07-2.69-.81-4.84-2.65-7.23-4.03-1.03-.6-1.57-1.65-2.44-2.4-1.19-1.02-2.24-2.21-3.28-3.4-1.29-1.48-2.13-3.23-3.21-4.83-1.14-1.7-1.49-3.69-2.52-5.39-.49-.82-.31-1.59-.09-2.39.28-.61,1.06-.42,1.52-1.03-.7.14-1.12.68-1.73.65-.81-.2-1.03-.75-.8-1.48.23-.71.13-1.33-.25-1.96-.65-1.07-.52-2.3-.31-3.39.43-2.26-.21-4.46-.09-6.68,0-.11-.07-.23-.03-.32.61-1.54.77-3.2,1.22-4.78.06-.23.32-.43.3-.68-.13-1.5.93-2.64,1.23-3.94.52-2.21,1.78-3.92,2.97-5.68,2.25-3.33,4.76-6.45,8.29-8.55,1.69-1.01,3.17-2.35,4.98-3.16.93-.41,1.87-.81,2.82-1.16,1.01-.37,2.2-.37,3.07-1.12.05-.05.12-.11.18-.11,1.47,0,2.84-.62,4.28-.75,1.29-.11,2.56.21,3.89-.03,1.63-.3,3.29.2,4.97.11,2-.11,3.88.69,5.81,1.07,2.1.42,3.96,1.27,5.8,2.13,3,1.4,5.74,3.26,8.06,5.68.39.41.38.64-.09,1.03-1.93,1.59-4.05,2.95-5.92,4.62-.46.41-.41,1.42-1.29,1.26-.6-.11-.92-.79-1.44-1.11-.25-.15-.49-.31-.75-.44-2.24-1.3-4.62-2.3-7.04-3.23-.45-.17-.91-.2-1.38-.2-.87.01-1.73.06-2.42-.64-.26-.27-.67-.22-1.03-.23-1.12,0-2.24,0-3.36,0-.6,0-1.15.09-1.62.48-.29.24-.63.36-1,.37-2.94.05-5.39,1.49-7.91,2.77-1.53.77-2.66,2.1-4.06,2.94-1.42.85-2.35,2.02-3.22,3.24-.69.97-1.41,1.9-2.25,2.74-.53.13-.7-.27-.93-.58.08.37.49.51.66.83-.07.86-.33,1.64-1.05,2.19-.31.03-.49-.22-.75-.35.13.34.49.5.54.86-.17,1.64-.48,3.24-1.29,4.7-.13.23-.21.45-.2.71.18,2.84.25,5.69-.11,8.52-.01.11-.05.28.01.31,1.1.66.78,1.89,1.17,2.84.18.45.34.87.29,1.35-.02.18-.08.42.03.53.98,1.01.99,2.47,1.83,3.59,1.83,2.46,3.9,4.67,6.14,6.73,1.76,1.62,3.83,2.77,6.09,3.53.62.21,1.02.73,1.71.88,1.06.23,2.09.43,3.18.43.74,0,1.42.27,1.85.95.13,1.1.61.4.99.19.98-.08,1.96-.03,2.94.03.46-.03.85-.23,1.11-.6.38-.55.92-.66,1.52-.62,2.53.16,4.69-1.03,6.91-1.95.67-.28,1.14-1.03,2.01-.83.34-.2,1.24.29.89-.74.64-1.56,3.09-2.11,4.07-.81.93,1.23,2.38,1.68,3.43,2.69.25.24.64.34.75.73,0,.23-.06.41-.4.48.35,0,.59-.21.85-.07.44.22.56.57.32.98-.4.72-.79,1.45-1.63,1.81-.79.34-1.57.74-2.01,1.56-.08.16-.23.3-.39.36-2.48,1.02-4.65,2.69-7.21,3.52-2,.65-4.01,1.27-6.04,1.85-.71.2-1.42.03-2.13-.14-.69-.16-1.38-.16-1.85.51-.16.24-.3.52-.11.81.2.29.5.26.78.16.55-.18,1.09-.43,1.66-.08.19.43-.19.46-.42.53-.37.11-.74.2-1.08.37Z"/>
    <path class="cls-1" d="m75.35,61.87c-.69-.77-1.61-.75-2.5-.62-1.36.21-2.72.54-3.87-.58-.07-.07-.2-.09-.31-.09-2.05-.04-3.6-1.17-5.12-2.36-.03-.02-.05-.06-.08-.07-2.27-.57-3.24-2.71-4.87-4.05-.47-.38-.87-.83-1.36-1.21-.63-.49-1.4-.95-1.36-1.95,0-.03-.02-.07-.05-.09-1.05-.77-1.28-2.08-1.79-3.13-.5-1.04-1.4-2.06-1.21-3.39.02-.13.02-.32-.05-.41-.67-.87-.59-1.9-.67-2.9.17-.18.11-.43.2-.64.04-1.53.04-3.05,0-4.58-.09-.21-.03-.46-.2-.64.07-1.19.3-2.28.74-3.44.33-.87.78-1.9.8-2.95,0-.13.06-.3.16-.39,1.02-.93,1.48-2.19,1.99-3.41.04-.1.09-.21.17-.27,1.88-1.49,2.98-3.68,4.99-5.14,2.88-2.09,5.93-3.6,9.33-4.43,2.3-.56,4.68-.79,7.05-.57,3.43.32,6.68,1.38,9.7,3,1.5.8,2.87,1.9,4.01,3.24.7.82,1.51,1.55,2.29,2.31,1.91,1.87,3.24,4.09,4.03,6.64.04.14.05.36.14.4,1.44.72.8,2.11,1.02,3.2.14.67.09,1.39-.62,1.82-.99-.38-.83-1.32-1.02-2.09-.03-.15-.04-.31-.02-.47.21-.81-.55-1.32-.66-2.04-.51-1.7-1.23-3.3-2.45-4.62-.07-.08-.12-.16-.17-.25-.25-.66-.57-1.27-1.16-1.68-.28-.22-.52-.46-.74-.75-.67-.86-1.36-1.69-2.33-2.23-.09-.05-.17-.1-.25-.17-1.29-1.28-2.72-2.33-4.55-2.7-.28-.06-.53-.18-.72-.39-.32-.55-.89-.6-1.41-.83-1.51-.67-3.14-.58-4.7-.9-1.47-.3-3.02-.28-4.51.02-.57.11-1.13.2-1.7.22-.11.02-.22.03-.33.03-1.11-.05-2.01.7-3.08.81-1.31.95-2.96,1.22-4.27,2.18-.69.51-1.42.96-1.97,1.64-1.26,1.25-2.57,2.45-3.76,3.76-.95.61-1.27,1.65-1.78,2.56-.92,1.77-1.99,3.48-2.13,5.55-.41,1.02-.85,2.03-.73,3.17,0,1.39,0,2.78,0,4.16-.06.66.03,1.31.27,1.91.54,1.37.73,2.84,1.26,4.21.12.3.24.6.43.87.17.28.28.58.39.89.91,1.59,1.6,3.34,3.12,4.5,1.17.99,2.16,2.19,3.41,3.1.44.44.89.86,1.49,1.09.18.09.35.18.51.29.51.5,1.19.71,1.81,1.01,1.12.27,2.07,1.04,3.28,1.03.11.03.21.07.31.13,1.03.54,2.05.83,3.28.71,2-.19,4.02.12,6.04-.02.82-.06,1.57-.14,2.24-.64.09-.05.2-.09.3-.13,1.51-.05,2.74-.86,4.03-1.49.54-.27,1-.67,1.55-.93,1.27-.47,2.39-1.14,3.14-2.32.58-.47,1.03-1.07,1.59-1.56,1.33-1.18,2.27-2.64,2.95-4.26.04-.09.09-.18.14-.27.54-.62.64-1.44.94-2.16.03-.1.07-.2.11-.3.47-1.11,1.09-2.15.93-3.45-.07-.56.18-1.07.89-1.11.19.17.55.35.53.49-.12,1.23.6,2.58-.46,3.66-.35.36-.55.77-.66,1.21-.5,2.12-1.88,3.79-3,5.56-.69,1.1-1.97,1.85-2.91,2.83-.62.64-.92,1.53-1.74,2.03-.49.3-.93.58-1.5.76-.85.28-1.36,1.18-2.27,1.47-1.13.35-2.13,1.07-3.31,1.3-.3.06-.52.21-.78.33-.78.35-1.56.73-2.48.4-.59-.22-1.13-.03-1.61.37-.75.62-1.58.29-2.39.22Z"/>
    <path class="cls-1" d="m32.58,74.69c-.15.2-.29.58-.44.58-1.27,0-2.59.69-3.82-.17-.58-.41-1.24-.51-1.9-.71-1.62-.49-3.31-.93-4.74-1.89-.71-.47-1.47-.96-2.2-1.24-1.2-.46-2.35-1.08-3.18-1.88-1.5-1.46-3.62-2.09-4.8-4.02-.69-1.12-2.23-1.7-2.85-3-1-2.1-2.71-3.72-3.74-5.83-.56-1.14-.89-2.5-1.97-3.4-.5-.41-.39-1.15-.53-1.72-.37-1.53-1.67-2.78-1.33-4.51.02-.1,0-.24-.07-.31-1.54-1.56-.83-3.54-1-5.34-.13-1.35.48-2.66.22-4.03-.34-1.8,0-3.63-.21-5.45-.09-.73,0-1.42.5-2.04.4-.51.66-1.12.58-1.81-.02-.21-.04-.47.07-.64,1.21-1.88,1.29-4.23,2.62-6.07.7-.97,1.27-2.08,1.7-3.23.34-.91.99-1.71,1.58-2.42,1.84-2.23,3.59-4.58,5.87-6.39,2.06-1.64,4.07-3.41,6.4-4.63,2-1.05,4.03-2.11,6.3-2.61,1.38-.31,2.91-.44,3.99-1.61.11-.12.32-.24.48-.23,1.4.1,2.86-.4,4.2.36.13.16.12.33.02.49-.98.66-2.03,1.04-3.23.88-.57-.07-1.06.12-1.48.49-2.03.49-3.99,1.22-5.97,1.88-2.09.84-4.17,1.7-5.84,3.27-.6.75-1.44,1.17-2.26,1.62-1.45.71-2.41,1.99-3.54,3.06-.49.47-.96.96-1.43,1.44-.89,1.09-2.02,2-2.54,3.37-.07.14-.16.25-.26.36-.58.55-.99,1.22-1.26,1.97-.05.09-.1.18-.16.26-.93,1.25-1.43,2.74-2.19,4.08-.24.43-.15.91-.21,1.37-.05.39-.24.73-.45,1.05-.83,1.92-1.07,4.01-1.66,6-.03.86.04,1.72-.04,2.57-.02.12-.06.24-.1.35-.39.46-.57.99-.5,1.6.15,1.26-.4,2.61.49,3.77.2.5.13,1.03.15,1.55-.01.32.03.64.08.95,0,.1,0,.2-.02.3-.03.3-.42.53-.17.88.17.64.48,1.23.66,1.87.48,2.63,1.24,5.16,2.58,7.49.8,1.4,1.45,2.88,2.35,4.24.28.58.68,1.08,1.08,1.58.23.38.55.7.74,1.1.96,1.77,2.44,3.1,3.81,4.53.44.74,1.26.96,1.92,1.4.36.18.69.4.96.7.49.76,1.16,1.28,2.05,1.48.13.07.25.16.35.27.39.87,1.26.94,2.02,1.2.1.03.19.07.28.11.74.58,1.69.81,2.42,1.41.09.05.17.11.25.17,1.18.47,2.45.71,3.53,1.45.52.36,1.21-.05,1.78.25.79.86,1.85.37,2.77.56.1.03.19.07.28.13.21.45.76.41,1.05.74Z"/>
    <path class="cls-1" d="m40.4.86c.07-.76.76-.82,1.21-.81,1.54.03,3.17-.25,4.48.94.36.33.89.26,1.33.38,3.1.82,6.05,1.99,8.82,3.63,1.62.96,3.02,2.24,4.69,3.16.62.34,1.01,1.1,1.53,1.64.75.77,1.46,1.57,2.4,2.14.85.51.93,1.25.31,2-.34.41-.72.79-1.19,1.09-1.95,1.24-3.93,2.44-5.8,3.78-.77.55-1.41,1.35-1.78,2.3-.18.47-.4.93-.67,1.36-.52.81-1.32.92-2.12.42-1.16-.71-2.2-1.56-3.25-2.41-.69-.56-1.79-.92-2.66-1.41-.97-.55-2.29-.38-2.96-1.49-.7-.31-1.47.08-2.17-.22-.41-.33-.86-.46-1.4-.45-1.48.03-2.98.15-4.44-.02-1.89-.22-3.68.29-5.36.82-1.38.43-2.82,1.01-4.16,1.78-1.35.77-2.46,1.92-3.96,2.43-.33.21-.71.05-1.06.12-.11,0-.2-.04-.28-.11-.08-.35.17-.58.31-.85.93-1.17,2.05-2.11,3.41-2.74,1.03.18,1.51-.87,2.38-1.05,1.3-.28,2.36-1.3,3.79-1.18.5.04.82-.43,1.24-.61.45-.19.92-.16,1.38-.06,1.91-.1,3.81-.12,5.72-.14.48-.08.93.28,1.42.09.8-.08,1.52.02,2.26.46.73.43,1.65.45,2.48.75,1.41.51,2.69,1.27,4.06,1.83.37.2.66.48.96.77.37.68,1.06.94,1.69,1.28.21.14.38.31.57.47.52.5.98.54,1.37-.16.32-.57.82-1,1.16-1.55,1.25-1.21,2.28-2.65,3.82-3.54.53-.11,1.01-.24,1.35-.75.3-.46.79-.72,1.33-.84.1-.02.21-.04.31-.07,1.1-.42,1.21-.99.34-1.75-2.46-2.48-5.15-4.66-8.29-6.25-1.26-.94-2.7-1.5-4.14-2.06-.37-.15-.75-.25-1.07-.49-1.25-.4-2.43-1.03-3.8-.94-1.24-.35-2.45-.86-3.79-.76-.74.05-1.23-.51-1.77-.92Z"/>
    <path class="cls-1" d="m21.95,23.23c-1.69,1.97-2.89,4.22-4.01,6.56-.51,1.05-.55,2.23-1.22,3.22-.24.36.09,1.06-.04,1.55-.72,2.59-.86,5.12-.04,7.75.26.84.26,1.82.43,2.73.21,1.15.91,1.98,1.22,3.03.48,1.62,1.72,2.86,2.51,4.32.89,1.65,2.33,2.51,3.79,3.55,1.38.97,2.77,1.84,4.28,2.54,1.94.91,4.03,1.43,6.09,1.94.8.2,1.7-.03,2.55-.06,1.12-.04,2.23.01,3.33.22.25.27.24.57.08.88-.13.14-.31.21-.49.25-1.65.11-3.31.04-4.97.04-.34,0-.68,0-1.01,0-1.57-.3-3.12-.67-4.59-1.36-.58-.27-1.26-.29-1.84-.58-.21-.03-.41-.07-.61-.14-.2-.07-.38-.18-.53-.33-1.05-.87-2.12-1.73-3.42-2.24-1.04-.62-1.83-1.5-2.54-2.46-.27-.59-.64-1.08-1.27-1.33-.35-.15-.53-.44-.67-.77-.13-.77-.71-1.28-1.09-1.91-.41-.94-.95-1.79-1.55-2.62-.22-.28-.29-.61-.32-.96-.5-1.94-1.04-3.88-1.35-5.86-.35-2.29-.4-4.6.41-6.83.25-.69,0-1.44.31-2.12.84-2.02,1.5-4.12,2.68-5.99.19-.31.37-.62.62-.88.38-.35.59-.78.69-1.29.35-.61.72-1.19,1.34-1.56.56.1.62-.78,1.21-.62l.03.03c.17.43.16.87,0,1.3Z"/>
    <path class="cls-1" d="m40.83,61.4v-.83c1.57-.49,3.18-.9,4.71-1.5,1.32-.51,2.56-1.22,3.83-1.86,1.49-.75,2.36-2.05,3.48-3.13.98-.95,2.08-.98,3.07-.02.91.88,1.8,1.79,2.69,2.68.15.15.36.31.41.5.21.77.71,1.13,1.43,1.44,1.66.71,3.03,1.92,4.58,2.82.63.36.73,1.13.41,1.92-.29.73-.8,1.28-1.36,1.76-1.02.88-1.86,2.02-3.27,2.37-.42.1-.59.51-.79.85-.37.61-.81,1.1-1.61,1.08-.16,0-.38.08-.49.19-1.22,1.32-2.79,2.22-4.4,2.76-1.88.63-3.58,1.77-5.59,2.02-.33.04-.68.09-.91.31-1.3,1.28-2.68.46-4.03.18-.08-.02-.13-.17-.19-.25.19-.26.43-.48.63-.74.09-.06.18-.1.28-.13,1.08.14,2.06-.26,3.09-.46,1.14-.22,2.11-.95,3.29-.92,2.3-.99,4.77-1.65,6.68-3.42.62-.83,1.86-.85,2.39-1.8.15-.15.32-.26.51-.35,1.57-.91,3.13-1.83,4.18-3.39.36-.55.29-.98-.31-1.32-1.53-.85-2.9-1.96-4.46-2.76-.31-.19-.56-.45-.76-.75-.78-1.46-2.16-2.39-3.26-3.57-.28-.3-.59-.18-.86.05-1.37,1.51-2.97,2.72-4.72,3.75-1.32.46-2.46,1.3-3.81,1.7-.98.29-1.97.54-2.9,1.02-.55.28-1.33.32-1.91-.2Z"/>
    <path class="cls-8" d="m36.08.89c.86,0,1.72,0,2.57,0,.5.36,1.09.27,1.65.36.3.05.87-.08.67.59-.68.34-1.41.12-2.11.21-.92,0-1.85,0-2.77,0-.77-.11-1.57.13-2.32-.2-.21-.7.37-.55.69-.62.54-.11,1.14.06,1.61-.36Z"/>
    <path class="cls-35" d="m41.05,1.74c-.39-.38-.88-.2-1.32-.19-.53,0-.89-.16-1.08-.65.58-.01,1.17-.02,1.75-.03,1.79.88,3.91.51,5.68,1.48-.03.05-.06.09-.09.14-.64.35-1.24.08-1.84-.12-.43-.15-.84-.39-1.33-.26-.11.01-.22,0-.33,0-.47-.14-1.03.05-1.43-.36Z"/>
    <path class="cls-40" d="m36.08.89c-.08.57-.48.62-.96.65-.49.03-1.02-.19-1.46.19-.08.1-.18.17-.3.22-1.1.21-2.27-.1-3.35.39-.15.07-.34-.04-.47-.17.16-.29.38-.61.7-.6,1.42.06,2.78-.14,4.08-.71.5-.37,1.01-.3,1.51,0,.08.01.16.03.24.04Z"/>
    <path class="cls-2" d="m40.39,74.64c.28-.72,1.06-.49,1.54-.82.27-.3.63-.27.98-.26.18.02.34.07.49.17.1.09.11.19.04.31h0c-.43.41-1.06.33-1.54.62-.5,0-1.01-.01-1.51-.02Z"/>
    <path class="cls-3" d="m31.49,74.04c-.07,0-.13-.01-.2-.02-.02-.14.02-.25.14-.33,1.01-.3,1.99-.3,2.89.34.12.19.2.39.04.6-.37,0-.73.02-1.1.02-.51-.43-1.26-.18-1.77-.61Z"/>
    <path class="cls-1" d="m52.34,40.6c0,.18-.04.34-.22.43v-5.86c.18.09.21.26.22.43.17,1.66.17,3.33,0,4.99Z"/>
    <path class="cls-42" d="m31.49,74.04c.64.06,1.41-.26,1.77.61-.23.01-.45.03-.68.04-.44-.08-1.12.22-1.09-.65Z"/>
    <path class="cls-43" d="m41.9,74.65c.38-.53.92-.67,1.54-.62.05.48-.19.68-.65.66-.3-.01-.59-.02-.89-.04Z"/>
    <path class="cls-1" d="m35.83.85c-.5,0-1.01,0-1.51,0v-.42c.6-.21,1.17-.32,1.51.42Z"/>
    <path class="cls-1" d="m75.35,61.87c.8-.07,1.62.18,2.39-.22-.73.83-1.57.43-2.39.22Z"/>
    <path class="cls-1" d="m21.95,23.23c0-.43,0-.87,0-1.3.43,0,.87,0,1.3,0-.72.15-1.16.58-1.3,1.3Z"/>
    <path class="cls-1" d="m42.57,17.37c.72.1,1.48-.23,2.17.22-.72-.1-1.48.23-2.17-.22Z"/>
    <path class="cls-52" d="m34.32,74.03c-1.01-.14-2.02-.3-3.05-.2-.06,0-.11,0-.17-.01-1.61.02-3.05-.74-4.59-1.02-.21-.07-.41-.14-.59-.28-.56-.29-1.2-.38-1.77-.67-.37-.15-.79.1-1.14-.16-.07-.02-.13-.04-.2-.05-.55-.91-1.63-.96-2.43-1.47-.06-.01-.13-.02-.19-.04-.65-.55-1.6-.61-2.16-1.31-.08-.07-.15-.14-.23-.21-.74-.49-1.53-.9-2.15-1.54-.29-.22-.58-.43-.87-.65-.47-.26-.78-.73-1.26-1-1.72-1.52-3.24-3.23-4.63-5.06-.18-.37-.69-.53-.66-1.04-.31-.56-.65-1.11-1.11-1.57-1.04-1.24-1.6-2.74-2.33-4.15-1.19-2.64-2.17-5.34-2.62-8.21.02-.78-.63-1.42-.47-2.23,0-.07.02-.14.06-.2-.13-.98.18-1.99-.25-2.95-.15-1.45-.11-2.91-.02-4.36.45-1.19.15-2.43.25-3.65.52-2.06.95-4.13,1.52-6.18.21-.26.4-.52.44-.87.48-2.06,1.59-3.83,2.55-5.68h.01c.5-.69.82-1.47,1.35-2.13.07-.08.13-.15.2-.23.7-1.22,1.63-2.26,2.55-3.31,1.66-1.6,3.16-3.37,5.04-4.73.73-.5,1.46-1,2.19-1.5.83-.87,1.93-1.33,2.94-1.9.98-.56,2.09-.9,3.07-1.48,1.14-.02,2.1-.67,3.16-.96,2.2-.61,4.37-1.27,6.68-1.21.86-.05,1.72.11,2.57-.09.95,0,1.89,0,2.84,0,1.22.27,2.48-.08,3.7.19.06-.02.12-.02.17,0,1.55.38,3.13.57,4.69.9,1.19.25,2.28.83,3.47,1.07,1.33.48,2.63,1.02,3.81,1.82.5.52,1.21.69,1.8,1.05,2.44,1.51,4.66,3.29,6.7,5.3.82.85.88,1.33-.04,1.72-1.21.51-2.07,1.52-3.25,2.04-1.29,1.1-2.51,2.27-3.67,3.5-.4.46-.86.86-1.17,1.39-.43.73-1,.86-1.69.32l-.47-.42c-.48-.55-1.31-.64-1.71-1.3-.32-.19-.65-.36-.84-.69-.06-.05-.08-.1-.08-.16,0-.06.01-.09.03-.09.43-.36.8-.82,1.34-1.04.68.34,1.3.76,1.77,1.37.25.32.65.47.72.03.15-.86.94-1.03,1.34-1.55,1.22-1.61,3.25-2.15,4.53-3.69.56-.67,1.4-.73.1-1.62-1.23-.84-2.2-1.98-3.55-2.81-1.37-.84-2.8-1.65-4.16-2.53-.67-.44-1.58-.53-2.33-.92-.89-.48-1.78-1.01-2.87-.67-1.02-1.47-2.92-.31-4.12-1.39-.46-.42-1.17.04-1.76.05-1.3.02-2.58-.04-3.87-.15-.73-.06-1.54-.21-2.14.44-.8-.82-1.79,0-2.64-.31-.1-.04-.24-.13-.3-.1-1.42.75-3.15.27-4.52,1.19-.24.16-.51.34-.8.27-.66-.14-1.22-.1-1.54.61-.04.09-.21.21-.24.19-1.02-.72-1.69.38-2.44.63-.57.19-1.3.57-1.9,1.02-.59.45-1.14,1.08-1.95,1.3-.69.19-1.19.78-1.79,1.17-2.56,1.67-4.79,3.69-6.48,6.3-.54.84-1.29,1.54-1.85,2.42-.85,1.31-1.59,2.68-2.44,3.99-.17.26-.13.56-.09.84.02.14.13.38.11.4-.86.48-.8,1.45-1.18,2.17-.06.12-.33.24-.32.26.85,1.47-1.56,2.62-.43,4.2.17.23-.41,1.15-.81,1.59-.36.39-.35.66-.29,1.13.14,1.21-.06,2.49.26,3.63.42,1.54-.35,2.93-.21,4.42.09.97-.03,1.94.64,2.77.4.49.23,1.03.01,1.54-.32.73-.12,1.18.67,1.34.16.1.34.19.22.43-.43,1.21-.06,2.42.52,3.35.67,1.09.69,2.43,1.39,3.37,1.73,2.3,2.8,5.03,5.06,7.01,1.48,1.3,2.79,2.86,4.21,4.25,1.1,1.07,2.64,1.56,3.85,2.48,1.38,1.04,2.94,1.63,4.56,2.15.78.25,1.33,1.15,2.33.84.13-.12.29-.11.45-.07.29.49.92.37,1.29.72.63-.05,1.21.16,1.75.45,1.35.72,2.75.04,4.11.2.54-.33.46.24.65.43.02.18.13.3.24.45.19.23.86,0,.62.62-.18.46-.58.46-.98.45-.25,0-.5,0-.75,0Z"/>
    <path class="cls-52" d="m51.69,17.37c-.35.47-.66.99-1.32,1.09-.89-.03-1.47-.76-2.28-1.04-1.23-.43-2.34-1.17-3.69-1.27-.48-.04-.8-.46-1.24-.61-2.18-.12-4.28-.89-6.51-.67-.68.07-1.26.15-1.72.67-.1.04-.21.06-.32.06-1.68-.33-3.14.41-4.6,1-.84.34-1.81.35-2.52,1.02-.69.14-1.08.9-1.83.92-1.15.84-2.39,1.57-3.28,2.72-.57.38-.97.95-1.51,1.37-.43.49-.86.99-1.29,1.48-.34.38-.47.9-.85,1.24-1.13,1.77-2.25,3.54-2.73,5.62-.11.46-.51.78-.56,1.26-.4,2.12-.8,4.21-.81,6.4,0,2.97.66,5.75,1.66,8.49.03.3.08.58.28.82.41.99.98,1.89,1.51,2.8.32.61.78,1.12,1.1,1.73.24.18.26.57.61.65.36.52.91.86,1.29,1.36.79.8,1.59,1.6,2.38,2.4,1.23.69,2.32,1.58,3.52,2.33.16.04.35,0,.42.22,1.01.61,2.2.81,3.23,1.36.15.03.3.09.45.12,1.09.23,2.09.88,3.26.73.26,0,.51-.01.76.04,1.04.63,2.17.49,3.29.37.31-.03.63-.03.94.02.57.17,1.04.19,1.58-.26.57-.46,1.42,0,2.1-.28,1.22-.59,2.57-.85,3.8-1.42.9-.42,1.78-.89,2.65-1.38,1.54-.75,2.85-1.86,4.08-3.02.63-.59,1.05-.76,1.7-.23.08.06.15.13.22.21.41.59.89,1.12,1.52,1.5.49.46,1.08.81,1.46,1.38.23.22.46.44.69.65,1.43,1.06,2.89,2.08,4.42,3,.64.38.61.85.08,1.3-.58.49-1.14.98-1.57,1.62-.65.8-1.56,1.29-2.34,1.93-.14.08-.28.16-.42.25-.69.7-1.64,1.01-2.41,1.6-.99,1.01-2.35,1.41-3.52,2.12-.97.59-2.18.63-3.09,1.37-.51.29-1.13-.11-1.62.29-.64.56-1.47.39-2.21.57-.1.02-.2.04-.3.05-.98.57-2.05.5-3.12.46-.36.01-.73.02-1.09.04-.49.04-.99-.1-1.46.23-.56.39-1.22.33-1.45-.32-.23-.64.19-1.34.75-1.57.54-.22,1.21-.4,1.87-.09.71.34,1.46.32,2.21.04.94-.35,2.08-.4,2.85-.81,1.05-.55,2.18-.87,3.22-1.13,1.53-.37,2.53-1.69,4.09-1.9.33-.04.63-.33.92-.54.48-.35.78-1.03,1.58-.73.1.04.42-.21.47-.38.36-1.11,1.35-1.37,2.26-1.74.86-.35,1.57-1.81,1.14-2.37-.16-.13-.35-.23-.43-.43-1.07-.58-1.82-1.65-3.01-2.06-.38-.13-.67-.39-.89-.75-.79-1.26-1.32-1.41-2.64-.79-.55.26-1.36.09-1.49.99-.22.36-.59.57-.87.87-1.1-.33-1.55.82-2.42,1.07-1.12.33-2.11,1.08-3.34,1.1-.11,0-.27-.02-.31.04-.85,1.1-2.01.56-3.06.6-.5.02-.92-.01-1.22.59-.21.43-.76.76-1.36.72-.97-.61-2.04-.21-3.06-.29-.16-.01-.34.08-.52.05-.12-.04-.23-.1-.32-.19-.7-.64-1.5-.92-2.46-.88-1.44.05-2.78-.21-4-1.15-.49-.38-1.27-.35-1.91-.72-1.29-.73-2.72-1.29-3.82-2.26-1.55-1.36-3.17-2.69-4.36-4.43-.34-.5-.73-1-1.35-1.21-.28-.09-.48-.33-.5-.53-.13-1-.99-1.51-1.43-2.3-.09-.16-.26-.33-.24-.47.14-.89-.4-1.43-.94-1.98-.03-.03-.07-.06-.06-.08.31-1.16-.67-2.13-.51-3.22.08-.59-.02-.92-.5-1.13-.55-.24-.62-.64-.44-1.11.21-.53.2-1.06.18-1.6-.08-2.29.26-4.59-.16-6.88-.02-.13-.02-.32.06-.41,1.17-1.48,1.13-3.34,1.63-5.04-.11-.23.02-.35.22-.43.61-.6.79-1.41,1.09-2.17.01-.13.13-.16.22-.22.49-.89,1.48-1.44,1.85-2.34.43-1.04,1.13-1.91,1.9-2.51,1.79-1.39,3.37-3.06,5.44-4.11,1.12-.57,2.35-1,3.34-1.62.94-.59,2.06-.47,2.87-1.19.35-.32.84-.16,1.26-.16.79,0,1.6.11,2.17-.66.1-.14.39-.2.59-.2,1.59-.02,3.18-.01,4.78,0,.17,0,.43.02.51.13.68,1.01,1.72.64,2.64.75,1.26.14,2.49.48,3.54,1.24.55.4,1.21.35,1.8.64,1,.49,1.88,1.17,2.92,1.58Z"/>
    <path class="cls-52" d="m28.02,68.17c-.58,0-1.05-.02-1.52,0-.4.02-.7-.13-.95-.42-.12-.13-.29-.26-.17-.46.11-.17.28-.15.47-.08,1.39.49,2.79.52,4.17-.02.33-.13.54,0,.79.16.45.29.85.69,1.45.63.19-.02.38.1.39.3,0,.2-.18.3-.37.31-.22.02-.51.1-.64,0-1.17-.95-2.5-.21-3.62-.41Z"/>
    <path class="cls-52" d="m28.68,71.42c-.47-.14-1.29.41-1.3-.65.36-.32.72-.22,1.09,0,.47-.39.86-.73,1.57-.29.39.24,1.05.06,1.59.08.32.01.76-.08.94.09.3.3,1.09.22.96.63-.19.61-.61-.09-.96-.1-1.14-.03-2.3.25-3.41-.24-.29-.13-.33.29-.47.48Z"/>
    <path class="cls-52" d="m11.95,34.79c-.36-.91-1.07-.8-1.72-.79-1.54.01-3.09.07-4.63.05-.35,0-.79.05-1.09-.29.36-.39.82-.21,1.22-.21,1.73-.03,3.47.03,5.2-.03.88-.03,1.21.26,1.02,1.28Z"/>
    <path class="cls-52" d="m15.29,53.41c-1.28,0-2.55-.02-3.83,0-.57.01-1.29-.25-1.51.64-.02.06-.18.14-.25.12-.08-.02-.21-.19-.2-.2.31-.4.16-1.2.89-1.19,1.64.03,3.31-.28,4.91.3,0,.11,0,.22-.01.33Z"/>
    <path class="cls-52" d="m11.94,32.36c-2.34.48-4.64.28-6.93.31-.22,0-.58.14-.61-.2-.03-.37.29-.26.55-.27,1.94-.04,3.9.29,5.83-.22.3-.08.8-.06,1.16.39Z"/>
    <path class="cls-52" d="m9.14,36.25c-1.69.05-3.29.4-4.86-.13.94-.41,1.94-.3,2.88-.23.84.06,1.29-.04,1.33-1.06.53.46.63.92.65,1.42Z"/>
    <path class="cls-52" d="m48.85,69.51c-.28.16-.51-.04-.75-.19-.22-.13-.73-.07-.57-.45.16-.38.89-.72,1.04-.53.91,1.25,1.62-.07,2.4-.13.17-.01.35-.31.53-.06.19.26-.09.37-.26.46-.74.4-1.45.88-2.38.89Z"/>
    <path class="cls-52" d="m21.27,67.76c.9-.58,1.64-.55,2.18.2.42.58.96.37,1.47.43.25.03.57.02.56.35,0,.25-.29.3-.51.29-.69-.03-1.45.24-1.88-.66-.33-.69-1.13-.26-1.81-.62Z"/>
    <path class="cls-52" d="m38.42,69.22c1.6.57,3.07,1.42,4.74,1.9-.87.46-3.4-.53-4.74-1.9Z"/>
    <path class="cls-52" d="m23.16,66.48c.09-.11.16-.3.26-.31,1.13-.15,1.87-.82,2.56-1.69.26-.33.73.1,1.08.46-1-.31-1.23.53-1.68,1.01-.59.62-1.41.47-2.21.54Z"/>
    <path class="cls-52" d="m5.17,44.63c1.6-.01,3.21-.15,4.77.35,0,.1-.01.19-.02.29-1.59-.1-3.18-.2-4.78-.31,0-.11.02-.23.02-.34Z"/>
    <path class="cls-52" d="m19.61,56.63c-1.27.31-2.55.26-3.84.07,1.26-.59,2.54-.53,3.84-.07Z"/>
    <path class="cls-52" d="m14.99,56.28c-1.29.83-2.54.54-3.74.58-.15,0-.29-.07-.28-.25.02-.21.17-.32.36-.32,1.15,0,2.3,0,3.65,0Z"/>
    <path class="cls-52" d="m14.62,54.61c-.43.22-.44.93-1.03.83-1.6-.27-1.64-.3-1.99-.87,1.03-.03,2.02.17,3.03.03Z"/>
    <path class="cls-52" d="m35.19,72.51c-.23-.13-.31-.47-.65-.43.08-.21.23-.35.43-.43.13-.11.28-.17.43-.22,1.3.59,1.62-.82,2.43-1.25-.37,1-.75,1.95-2.04,1.89-.3-.01-.59.05-.6.45Z"/>
    <path class="cls-52" d="m35.41,71.42c-.09.18-.26.21-.43.22.24-.49-.18-.54-.45-.62-.85-.27-1.27-1.1-2.05-1.48,1.13-.01,1.8.99,2.82,1.19.08.02.08.45.12.69Z"/>
    <path class="cls-52" d="m47,69.81c-.21.4-.59.39-.85.28-.56-.25-1.1-.47-1.73-.42-.18.02-.38-.1-.39-.29-.01-.2.17-.31.36-.32.86-.02,1.58.59,2.45.52.05,0,.11.15.16.23Z"/>
    <path class="cls-52" d="m7.62,41.77c-.66-.62-1.45-.64-2.26-.59-.26.02-.47-.08-.47-.31,0-.31.26-.21.48-.22,1.58-.07,1.58-.08,2.25,1.12Z"/>
    <path class="cls-52" d="m10.45,51.64c-1.08,1.02-2.06-.04-2.98.34-.03.01-.18-.14-.19-.23-.03-.24.16-.3.34-.29.88.05,1.76.11,2.82.18Z"/>
    <path class="cls-52" d="m9.05,42.47c-.61.38-1.21.77-1.82,1.13-.18.11-.4.23-.57,0-.19-.29.04-.46.22-.63.58-.53,1.4-.34,2.02-.75.05.08.1.17.15.25Z"/>
    <path class="cls-52" d="m8.54,43.76c.43-.33.99-.14,1.23-.75.14-.36.55.28.91.25.08,0,.27.2.26.28-.06.31-.39.23-.59.35-.63.36-1.17.14-1.82-.12Z"/>
    <path class="cls-52" d="m45.36,71.05c-.55-.03-.98-.05-1.4-.07-.23-.01-.47-.05-.45-.34.01-.28.27-.28.49-.31.48-.06.92.12,1.38.21.23.04.47.11.42.37-.06.3-.36.11-.43.13Z"/>
    <path class="cls-52" d="m44.52,64.91c-.58,0-1.15,0-1.73,0-.22,0-.48-.05-.5-.3-.02-.26.24-.35.46-.33.59.06,1.22-.23,1.76.2.12.14.14.29,0,.43Z"/>
    <path class="cls-52" d="m17.81,63.4c-.03.32-.13.59-.37.5-.54-.18-.89.52-1.41.24-.04-.02-.08-.15-.06-.18.4-.53,1.07-.72,1.57-1.15.22-.19-.01.51.28.58Z"/>
    <path class="cls-52" d="m12.61,44.21c-.12,1.35-1.7.49-1.92,1.55q-.04-.93,1.92-1.55Z"/>
    <path class="cls-52" d="m5.01,47.33c-.07-.14-.14-.29-.22-.43.4-.23.79-.47,1.19-.7.26-.15.58-.28.77.01.23.35-.16.48-.36.64-.41.31-.91.36-1.39.48Z"/>
    <path class="cls-52" d="m44.22,68.18c-.45-.09-1-.08-1.13-.7-.03-.16.23-.4.34-.3.47.4,1.31.1,1.55.67.14.34-.44.29-.76.34Z"/>
    <path class="cls-52" d="m39.65,65.35c.17-.04.41-.11.65-.16.28-.06.65-.17.69.23.04.4-.37.52-.67.53-.27,0-.54-.16-.8-.26-.25-.1-.77.33-.73-.22.03-.44.49-.24.87-.12Z"/>
    <path class="cls-52" d="m39.92,68.14c.3.15.44-.2.65-.43.13-.14.3-.19.47-.04.2.17.07.31-.05.45-.33.39-.59.94-1.27.51-.19-.12-.56-.08-.45-.43.08-.26.33-.21.65-.06Z"/>
    <path class="cls-52" d="m18.1,61.26c-.9.5-1.57.52-2.25.2-.04-.02-.03-.26,0-.27.67-.3,1.34-.25,2.24.07Z"/>
    <path class="cls-52" d="m55.12,64.94c-.68.57-1.34.37-1.96.39-.19,0-.34-.1-.34-.32,0-.17.12-.3.26-.27.63.17,1.3-.18,2.04.2Z"/>
    <path class="cls-52" d="m29.11,64.91c.77-.75,1.52-.34,2.28-.02-.74.37-1.52.17-2.28.23-.08-.05-.1-.1-.08-.14.02-.05.05-.07.08-.07Z"/>
    <path class="cls-52" d="m31.8,69.78c-.05.19-.22.37-.37.22-.39-.38-.85-.29-1.3-.33-.21-.02-.46-.07-.43-.35.02-.21.22-.25.4-.28.37-.07,1.66.48,1.69.73Z"/>
    <path class="cls-52" d="m55.05,65.98c.34.1.86-.17.9.34.03.46-.47.33-.75.32-.34-.02-.92.22-.93-.35,0-.39.51-.22.78-.3Z"/>
    <path class="cls-52" d="m9.94,37.94c.66-.3,1.34-.5,2.33-.36-.88.61-1.58.62-2.33.36Z"/>
    <path class="cls-52" d="m44.52,64.91v-.43c.51.22,1.01.43,1.52.65-.44.83-.67.79-1.52-.22Z"/>
    <path class="cls-52" d="m48.21,64.91c.03.1.06.21.11.3.14.25.82,0,.6.51-.18.43-.7.36-1.05.17-.5-.26-.04-.52.08-.77.03-.06.03-.14.05-.21.07-.07.14-.07.22,0Z"/>
    <path class="cls-52" d="m53.73,62.39c-.4.12-.81.23-1.21.37-.22.08-.43.14-.52-.15-.07-.23.14-.31.3-.38.47-.2.95-.2,1.43.16Z"/>
    <path class="cls-52" d="m35.62,64.04c.96,0,1.91,0,2.87,0,.34,0,.75-.09.82.43-1.01-.07-2.03-.14-3.04-.22-.29.16-.57.27-.65-.22Z"/>
    <path class="cls-52" d="m12.58,48.35c.55.17,1.1.35,1.66.52.15.05.27.12.22.29-.04.15-.16.25-.32.21-.63-.15-1.16-.46-1.67-.8.04-.07.07-.14.11-.21Z"/>
    <path class="cls-52" d="m59.24,63.71c-.59.18-1.19.03-1.48.61-.06.12-.27.12-.35-.03-.04-.08-.05-.25,0-.3.5-.44,1.01-.89,1.83-.28Z"/>
    <path class="cls-52" d="m22.22,64.96c.23.3.88-.07.97.53.03.21-.22.33-.37.24-.33-.21-.93.07-1.03-.52-.04-.21.18-.26.42-.25Z"/>
    <path class="cls-52" d="m38.72,70.6c.23.3.88-.07.97.53.03.21-.22.33-.37.24-.33-.21-.93.07-1.03-.52-.04-.21.18-.26.42-.25Z"/>
    <path class="cls-52" d="m7.3,53.09c.51-.39.98-.45,1.47-.21.14.07.14.3.03.37-.48.3-.95.2-1.5-.15Z"/>
    <path class="cls-52" d="m29.11,64.91v.22c-.4.44-.9.62-1.49.5-.06-.01-.16-.23-.14-.25.47-.4,1.04-.48,1.64-.48Z"/>
    <path class="cls-52" d="m32.5,65.06c.22.15.72-.07.62.39-.08.38-.49.34-.81.31-.26-.02-.56-.13-.49-.43.08-.33.4-.34.68-.27Z"/>
    <path class="cls-52" d="m34.29,68.44c-.02.18-.1.35-.25.29-.39-.17-.75-.43-.77-.91,0-.21.18-.31.38-.25.45.13.51.54.64.87Z"/>
    <path class="cls-52" d="m17.31,55c-.19.36-.54.5-.93.54-.18.02-.44-.17-.33-.27.28-.28.52-.7.99-.69.17,0,.29.18.27.42Z"/>
    <path class="cls-52" d="m51.04,60.35c.06-.52.35-.81.87-.87.17.04.39.02.49.12.18.19-.07.27-.19.39-.33.33-.73.4-1.17.36Z"/>
    <path class="cls-52" d="m34.79,67.14c.3.13.71.16.75.6.02.24-.19.41-.42.35-.3-.08-.65-.17-.72-.53-.05-.25.13-.38.39-.42Z"/>
    <path class="cls-52" d="m38.36,65.7c-.06.29-.24.4-.39.37-.44-.08-.68-.45-.89-.81,0-.01.21-.22.31-.21.45.05.64.47.97.65Z"/>
    <path class="cls-52" d="m38.58,67.86c-.26.27-.42.71-.84.85-.15.05-.39-.19-.28-.33.23-.33.38-.78.87-.83.16-.02.25.1.25.31Z"/>
    <path class="cls-52" d="m46.13,67.2c.53.32.97.45.66.92-.18.26-.53.53-.82.29-.6-.5.6-.63.16-1.21Z"/>
    <path class="cls-52" d="m46.54,65.17c-.26-.07-.6.09-.5-.36.05-.25.04-.55.4-.5.34.05.63.28.61.63-.02.34-.31.33-.51.23Z"/>
    <path class="cls-52" d="m56.54,64.69c.26.04.65-.04.62.37-.03.3-.37.28-.61.27-.29,0-.64-.03-.61-.41.03-.35.39-.19.61-.24Z"/>
    <path class="cls-52" d="m42.18,68c.24.25.81-.03.93.45.05.2-.22.38-.45.28-.31-.13-.76-.07-.87-.49-.06-.21.15-.27.39-.24Z"/>
    <path class="cls-52" d="m32.51,67.3c-.26-.04-.65.04-.62-.37.02-.3.36-.28.61-.28.29,0,.64.03.62.4-.02.35-.39.19-.6.25Z"/>
    <path class="cls-52" d="m10.57,36.42c-.06.43-.35.44-.63.49-.35.06-.73.22-.79-.34,0-.08-.05-.36.06-.26.43.39.95-.28,1.36.11Z"/>
    <path class="cls-52" d="m14.78,28.22l-.22.43c-.42-.27-.78-.58-1.06-1.13.71-.09,1.01.27,1.28.7Z"/>
    <path class="cls-52" d="m10.62,48.85c-.3-.04-.68.04-.66-.37.02-.3.36-.28.61-.28.25,0,.58,0,.59.31.01.32-.32.31-.53.34Z"/>
    <path class="cls-52" d="m43.95,66.13c-.14.34-.44.3-.72.3-.22,0-.5-.05-.5-.29,0-.4.37-.34.65-.35.25,0,.5.02.57.34Z"/>
    <path class="cls-52" d="m18.92,65.96c.33-.09.42-.14.46-.11.32.2.83-.01,1,.45.05.13-.05.3-.22.3-.46-.01-.82-.24-1.23-.64Z"/>
    <path class="cls-52" d="m20.77,57.61c-.17.39-.5.36-.83.34-.21-.01-.51-.07-.45-.33.13-.52.63-.08.93-.26.14-.09.35,0,.35.25Z"/>
    <path class="cls-52" d="m7.58,47.77c-.3-.04-.68.04-.66-.37.02-.3.36-.28.61-.28.25,0,.58,0,.59.31.01.32-.32.31-.53.34Z"/>
    <path class="cls-52" d="m43.14,69.84c-.07.34-.36.41-.63.46-.22.04-.48-.06-.45-.3.03-.3.29-.48.6-.5.23-.02.39.12.48.34Z"/>
    <path class="cls-52" d="m9.87,39.2c-.17.35-.47.31-.75.3-.24-.02-.58-.04-.46-.4.11-.33.47-.24.75-.23.22,0,.4.1.45.33Z"/>
    <path class="cls-52" d="m16.08,25.83c-.07.07-.14.14-.22.22-.09-.05-.19-.09-.28-.15-.39-.26-.71-.68-.72-1.08-.01-.4.33-.21.48.01.13.2.14.47.38.62.14.09.25.25.37.37Z"/>
    <path class="cls-52" d="m36.63,65.99c.13.24.17.28.16.3-.18.41-.42.78-.84.97-.05.02-.23-.11-.23-.15.08-.54.56-.72.91-1.13Z"/>
    <path class="cls-52" d="m30.07,63.22c-.14.35-.32.38-.49.41-.28.04-.43.42-.76.31-.06-.02-.12-.2-.1-.27.13-.35.45-.43.77-.47.17-.02.35.01.57.03Z"/>
    <path class="cls-52" d="m10.3,34.84c.25-.02.64-.2.63.26,0,.28-.36.29-.62.28-.25,0-.59,0-.59-.31,0-.37.32-.29.58-.23Z"/>
    <path class="cls-52" d="m5.99,42.14c.2.02.42.1.4.28-.02.31-.27.49-.57.53-.22.03-.48-.06-.44-.32.05-.3.31-.46.61-.5Z"/>
    <path class="cls-52" d="m12.26,50.88c-.02.28-.24.34-.45.34-.3,0-.7.13-.78-.33-.04-.2.21-.32.38-.24.27.13.67-.25.85.23Z"/>
    <path class="cls-52" d="m12.69,31.83c.17,0,.29.11.28.25-.03.35-.07.7-.16,1.04-.08.29-.38.22-.52.14-.18-.11-.13-.3.1-.38.42-.16.18-.47.14-.72-.03-.17,0-.28.17-.33Z"/>
    <path class="cls-52" d="m13.31,50.35c.58-.14.88.12,1.11.49.09.15-.05.31-.19.31-.49,0-.69-.36-.92-.8Z"/>
    <path class="cls-52" d="m51.86,64.22c-.56.33-.89.09-1.19-.18-.1-.09-.02-.31.11-.35.5-.15.68.29,1.08.53Z"/>
    <path class="cls-52" d="m54.26,62.47c.48.09,1.01-.02,1.45.43-.65.21-1.14.18-1.45-.43Z"/>
    <path class="cls-52" d="m12.32,47.5c-.72.14-1.14.15-1.5-.19-.03-.03.02-.24.07-.26.48-.15.83.08,1.42.45Z"/>
    <path class="cls-52" d="m26.77,66.14c.29.19.75.2.9.61.05.12-.21.3-.27.24-.27-.33-.85-.22-.97-.69-.04-.14.14-.22.34-.16Z"/>
    <path class="cls-52" d="m13.73,51.72c-.37.35-.75.53-1.15.19-.11-.09-.21-.28-.04-.35.41-.19.79.08,1.2.16Z"/>
    <path class="cls-52" d="m10.62,54.73c.3.1.57.27.62.62.02.18-.11.38-.33.28-.28-.13-.54-.35-.6-.68-.03-.18.15-.2.31-.22Z"/>
    <path class="cls-52" d="m46.95,66.25c.04.26.06.32.05.33-.35.23-.52.75-1.05.65-.08-.01-.21-.18-.19-.21.22-.51.78-.41,1.2-.76Z"/>
    <path class="cls-52" d="m41.08,66.76c.18-.14.22-.19.23-.18.4.19.89.22,1.16.63.03.04-.09.25-.12.24-.49-.07-.83-.39-1.28-.69Z"/>
    <path class="cls-52" d="m13.25,58.82c-.19,0-.39-.07-.32-.29.08-.28.29-.48.6-.52.21-.03.36.09.29.3-.08.27-.21.53-.57.51Z"/>
    <path class="cls-52" d="m35.62,64.04c.16.26.41.21.65.22-.06.71-.48.65-.95.43-.63-.29.06-.43.08-.65h.22Z"/>
    <path class="cls-52" d="m12.19,35.82c-.39.45-.69.67-1.12.57-.14-.03-.23-.23-.13-.34.3-.34.68-.35,1.25-.24Z"/>
    <path class="cls-52" d="m9.41,56.01c.34.07.65.2.66.57,0,.2-.21.28-.4.22-.27-.09-.54-.23-.6-.54-.05-.27.19-.22.33-.25Z"/>
    <path class="cls-52" d="m48.21,64.91h-.22c-.26-1.32.58-.43,1.06-.63-.21.52-.62.43-.84.63Z"/>
    <path class="cls-52" d="m46.69,63.98c.34-.78.86-.55,1.45-.58-.42.57-.91.45-1.45.58Z"/>
    <path class="cls-52" d="m24.89,64.58c-.36.51-.89.24-1.29.38.33-.37.65-.78,1.29-.38Z"/>
    <path class="cls-52" d="m20.26,64.9c-.7.27-1.04-.02-1.57-.22.65-.53,1-.11,1.57.22Z"/>
    <path class="cls-52" d="m20.48,65.64c0-.15-.02-.31.02-.33.33-.18.24-.78.74-.77.05,0,.15.21.15.21-.32.25-.29.88-.91.89Z"/>
    <path class="cls-52" d="m10.99,57.54c-.03.27-.21.37-.43.39-.21.02-.45.03-.49-.26-.04-.29.18-.35.41-.35.2,0,.44-.06.52.22Z"/>
    <path class="cls-52" d="m48.44,62.56c.33-.3.53-.63.94-.56.05,0,.12.28.07.37-.2.38-.51.45-1.01.18Z"/>
    <path class="cls-52" d="m15.98,57.27c-.42.76-.77.78-1.17.56-.06-.04-.12-.22-.09-.26.31-.41.7-.02,1.26-.3Z"/>
    <path class="cls-52" d="m29.79,66.13c.04.13.06.17.05.19-.27.37-.67.53-1.09.64-.03,0-.18-.2-.16-.22.31-.38.76-.47,1.2-.61Z"/>
    <path class="cls-52" d="m51.18,67.33c-.2.16-.34.1-.42,0-.22-.32-.82-.09-.88-.61,0-.04.11-.14.12-.14.39.24,1.01.17,1.17.75Z"/>
    <path class="cls-52" d="m7.99,54.63c.65-.18,1.05-.2,1.58.02-.5.58-.92.3-1.58-.02Z"/>
    <path class="cls-52" d="m15.58,59.82c.11.63-.29.74-.67.84-.06.02-.27-.21-.25-.26.15-.42.55-.45.92-.57Z"/>
    <path class="cls-52" d="m13.67,47.65c-.5-.1-.84-.26-.97-.84.59.03.95.17.97.84Z"/>
    <path class="cls-52" d="m19.09,60.53c-.63.37-.94-.07-1.32-.19.45-.29.84-.19,1.32.19Z"/>
    <path class="cls-52" d="m7.66,37.69c.58-.36.95-.18,1.46.19-.58.14-.98.21-1.46-.19Z"/>
    <path class="cls-52" d="m8.88,46.47c.45.12.95.12,1.38.7-.69-.07-1.11-.22-1.38-.7Z"/>
    <path class="cls-52" d="m36.12,68.91c-.47.65-.95.72-1.65.89.47-.65.94-.72,1.65-.89Z"/>
    <path class="cls-52" d="m27.25,62.9c-.31.3-.63.59-1.03.98q.19-.81,1.03-.98Z"/>
    <path class="cls-52" d="m28.46,70.77h-1.52c.51-.47,1.01-1,1.52,0Z"/>
    <path class="cls-52" d="m7.27,49.1c-.51-.16-.94-.16-1.23-.5-.03-.03.06-.17.1-.25.36.17.73.34,1.09.52.02,0,.01.07.05.24Z"/>
    <path class="cls-52" d="m8.92,41.17c-.12-.4-.68-.53-.58-1.02,0-.05.2-.12.26-.09.49.25.24.73.33,1.12Z"/>
    <path class="cls-52" d="m9.72,49.7c.6-.03,1.05-.05,1.58-.07q-.49.47-1.58.07Z"/>
    <path class="cls-52" d="m59.94,62.09c.21.08.35.23.43.43-.45,0-.92.51-1.37-.05.25-.34.74,0,.94-.39Z"/>
    <path class="cls-52" d="m11.25,40.11c.88.04.66.63.67,1.07-.21-.33-.41-.65-.67-1.07Z"/>
    <path class="cls-52" d="m18.43,65.79c-.69-.12-.69-.61-.93-.9.08-.05.18-.17.22-.15.44.18.39.63.71,1.05Z"/>
    <path class="cls-52" d="m44.49,64.08c.3-.8.72-.7,1.21-.62-.24.5-.68.38-1.21.62Z"/>
    <path class="cls-52" d="m12.16,43.6c-.79-.27-.65-.85-.87-1.2.59.13.55.64.87,1.2Z"/>
    <path class="cls-52" d="m4.89,35.04c-.05.22-.18.32-.38.33-.19,0-.4-.04-.41-.25-.01-.2.22-.26.38-.3.2-.06.34.04.41.23Z"/>
    <path class="cls-52" d="m21.25,66.74c0,.16-.07.28-.24.3-.22.02-.33-.1-.35-.31-.02-.18-.03-.39.24-.34.17.03.34.13.35.35Z"/>
    <path class="cls-52" d="m51.36,65.79c.06.03.11.06.16.1-.05.03-.11.08-.16.08-.05,0-.11-.05-.16-.08.05-.03.11-.06.16-.1Z"/>
    <path class="cls-52" d="m54.08,63.61c.09.04.19.07.28.11-.09.04-.19.07-.28.11-.05-.05-.07-.1-.05-.14.02-.05.04-.07.05-.07Z"/>
    <path class="cls-52" d="m54.08,63.61v.22c-.33.18-.16-.13-.22-.22.07-.06.14-.06.22,0Z"/>
    <path class="cls-52" d="m54.08,63.61h-.22c.07-.15.14-.15.22,0Z"/>
    <path class="cls-52" d="m97.07,32.99c-.11,1.75.2,3.48.14,5.23-.07,2.15.06,4.29-.77,6.35-.18.45-.3.97-.2,1.48-.03.06-.05.11-.07.17-.51.65-.5,1.56-1.07,2.18h0c-.71,1.73-1.86,3.16-3.05,4.56-.5.51-.88,1.15-1.53,1.5-.89,1.06-2.12,1.66-3.24,2.41-.51.28-.92.74-1.5.91-.87.58-2,.6-2.83,1.26-.4.31-.92-.08-1.31.23h0c-1.91.98-3.96.79-6,.75-1.08-.02-2.18-.13-3.24.03-1.08.17-1.76-.74-2.73-.77-.07,0-.13-.01-.2-.03-1.22-.18-2.3-.77-3.43-1.19-.64-.24-1.21-.61-1.78-.97-.14-.07-.29-.15-.43-.22-.52-.35-1.03-.7-1.52-1.08-1.37-.78-2.3-2.04-3.45-3.06-1.08-1.14-1.85-2.49-2.66-3.82-.17-.27-.32-.56-.59-.75-.08-.28-.16-.56-.24-.85-.57-1.31-1.19-2.6-1.27-4.05-.09-.82-.13-1.66-.36-2.46-.15-.54-.09-1.03.45-1.31.56-.29.96.07,1.33.44.7.71.68,1.68.7,2.55.02.84.26,1.53.62,2.25.37.74,1.08,1.4.74,2.38-.03.1.03.22.1.3,1.81,2.2,3.19,4.66,5.63,6.43,2,1.45,4.12,2.56,6.34,3.38,1.54.56,3.3,1.04,5.04.69.75-.15,1.43.08,2.14.1,1.89.04,3.58-.48,5.32-1.32,1-.48,2.21-.67,3.2-1.32,2.07-1.37,3.96-2.9,5.55-4.89,1.3-1.63,1.98-3.59,3.23-5.22.16-.21.16-.47.14-.73-.09-.82-.02-1.57.65-2.18.27-.25.31-.65.25-1.02-.27-1.69-.09-3.39-.14-5.09-.04-1.36-.19-2.65-.59-4-.66-2.25-1.8-4.19-2.95-6.16-1.24-2.12-3.11-3.58-5.18-4.78-1.65-.95-3.47-1.55-5.21-2.29-2.25-.97-4.46-.53-6.68-.7-.65-.05-1.3.02-1.95-.07-.14-.02-.36-.1-.42-.02-.82,1.04-2.21.6-3.16,1.23-.45.3-.97.27-1.42.46-2,.86-3.83,1.96-5.53,3.36-1.85,1.52-3.12,3.51-4.12,5.56-.88,1.8-1.96,3.67-1.63,5.9.16,1.13-1.5,2.04-2.65,1.53-.24-.52-.12-1.03.07-1.54.61-1.42.52-3.03,1.2-4.46.44-.93.85-1.88,1.31-2.81.55-1.02,1.07-2.05,1.87-2.91,1.08-1.38,2.38-2.54,3.67-3.71,2.84-2.38,6.22-3.62,9.74-4.56,2.09-.24,4.2-.13,6.3-.19,1.26.27,2.58.29,3.79.78.93.04,1.86.08,2.54.87.22.08.44.16.66.24,1.63.75,3.2,1.61,4.57,2.8.06.02.13.03.2.04.88.71,1.64,1.54,2.41,2.37.22.22.43.44.65.66.57.48.78,1.22,1.29,1.75.01.06.03.13.04.19,1.22,1.64,2.14,3.42,2.58,5.43.12.48.56.82.6,1.34.01.14.02.28.03.42Z"/>
    <path class="cls-41" d="m84.05,17.75c-.85-.28-1.64-.77-2.59-.64-1.11-.89-2.47-.6-3.72-.82l-6.27.16c-.14-.11-.14-.24-.04-.37,1.81-.37,3.66-.69,5.49-.42,1.33.2,2.69.19,3.97.49.79.19,1.56.55,2.41.65.46.06.69.48.76.94Z"/>
    <path class="cls-17" d="m71.42,16.09c.01.12.02.25.04.37-3.47,1-6.8,2.31-9.78,4.39.98-1.21,2.32-1.92,3.68-2.61.87-.44,1.86-.64,2.62-1.29,1.17.02,2.13-.73,3.26-.86.06,0,.13,0,.19,0Z"/>
    <path class="cls-50" d="m69.69,59.29c.62-.07,1.22-.1,1.69.43.21.24.53.18.81.18,1.9,0,3.81.01,5.71.02.97,0,1.92-.03,2.8-.56.24-.15.63-.06.95-.08-.67.69-1.49.79-2.43.89-2.47.26-4.93-.25-7.4.12-.77.12-1.49-.5-2.14-.99Z"/>
    <path class="cls-31" d="m56.25,27.36c-.63,1.53-1.3,3.04-1.87,4.59-.27.73-.02,1.57-.31,2.31-.06.16-.14.32-.2.47-.11.07-.21.06-.29-.05-.01-.69.31-1.3.49-1.94-.01-2.17,1.14-3.88,2.18-5.64.07.05.09.1.08.16-.02.06-.04.09-.06.09Z"/>
    <path class="cls-28" d="m89.27,20.8c-1-.6-2.05-1.13-2.98-1.82-.51-.38-1.34-.21-1.58-.98.32-.24.56-.07.86.11.97.59,1.98,1.11,2.94,1.71.35.22.71.51.77.99Z"/>
    <path class="cls-38" d="m54.29,43.22c-.18,1.3.74,2.31.92,3.51.03.2.11.4.17.6-.95-.61-.92-1.78-1.17-2.64-.32-1.1-.73-2.22-.94-3.37-.06-.31-.03-.64-.04-.96.11-.06.21-.04.3.04.6.84.61,1.84.77,2.81Z"/>
    <path class="cls-55" d="m53.45,40.37c-.08,0-.16,0-.23,0,0-1.51,0-3.03,0-4.54.33-.3-.25-.94.42-1.11.07,0,.15.01.22.02-.09.5-.31.99-.21,1.52.45,1.4.67,2.78-.2,4.12Z"/>
    <path class="cls-36" d="m55.62,48.17c.94.32.95,1.36,1.53,1.99.69.75,1.15,1.71,1.72,2.58-1.59-1.16-2.29-2.96-3.25-4.57Z"/>
    <path class="cls-32" d="m87.29,56.88c.92-1.01,2.2-1.55,3.24-2.41-.7,1.31-1.89,1.97-3.24,2.41Z"/>
    <path class="cls-50" d="m81.65,59.28c1.41-.43,2.7-1.17,4.14-1.49-.76.9-2.11.71-2.93,1.57-.18.19-.8-.04-1.21-.08Z"/>
    <path class="cls-50" d="m66.04,57.92c1.15.45,2.31.89,3.46,1.34-1.36.28-2.31-.76-3.47-1.08-.1-.09-.1-.18.02-.25Z"/>
    <path class="cls-1" d="m52.34,40.6v-4.99c.35,1.66.35,3.33,0,4.99Z"/>
    <path class="cls-7" d="m56.25,27.36c0-.08,0-.16-.01-.24.42-.97.78-1.99,1.77-2.56-.59.93-1.17,1.87-1.76,2.8Z"/>
    <path class="cls-5" d="m91.87,23.2c-.92-.67-1.67-1.51-2.41-2.37,1.04.55,1.81,1.38,2.41,2.37Z"/>
    <path class="cls-41" d="m71.24,16.09c-1.07.36-2.04,1.06-3.26.86,1.13-.11,2.06-1,3.26-.86Z"/>
    <path class="cls-38" d="m53.64,34.72c-.37.29-.03.83-.42,1.11-.12-1.13.28-2.13.84-3.07-.14.65-.28,1.31-.42,1.96Z"/>
    <path class="cls-37" d="m66.04,57.92c0,.08-.01.17-.02.25-.62-.3-1.38-.36-1.74-1.07.73-.04,1.1.7,1.76.82Z"/>
    <path class="cls-14" d="m62.32,55.8c.63.19,1.15.52,1.52,1.08-.67-.14-1.2-.46-1.52-1.08Z"/>
    <path class="cls-8" d="m33.43,1.95c-1.66-.36-3.12.57-4.7.79-1.37.19-2.72.62-3.99,1.26-.36.18-.84.1-1.27.15-.06-.05-.08-.09-.06-.14.02-.05.04-.07.05-.07,1.26-.44,2.54-.84,3.78-1.33.75-.29,1.54-.18,2.28-.43,1.28-.4,2.59-.55,3.93-.41.06.06.07.1.04.14-.03.03-.05.05-.08.05Z"/>
    <path class="cls-45" d="m1.53,40.39c-.94-.87-.94-4.59,0-5.44.2,1.81.17,3.62,0,5.44Z"/>
    <path class="cls-27" d="m2.37,45.39c.1,1.67.79,3.19,1.22,4.77.32,1.18.99,2.23,1.22,3.44-.81-.86-1.05-1.98-1.42-3.04-.54-1.54-1.19-3.06-1.22-4.74-.09-.14-.09-.28-.05-.43.08-.08.17-.08.25,0Z"/>
    <path class="cls-29" d="m23.48,3.93c0,.07,0,.14,0,.22-.55.82-1.57.79-2.32,1.28-1.13.73-2.35,1.32-3.54,1.98-.04-.61.52-.59.85-.82,1.25-.86,2.47-1.76,4-2.1.38-.09.54-.61,1.01-.55Z"/>
    <path class="cls-30" d="m8.91,60.37c.75.46,1.19,1.22,1.7,1.89.9,1.17,2.05,2.06,3.05,3.1-.51.29-.59-.25-.86-.43-1.53-1.31-2.94-2.74-3.9-4.55Z"/>
    <path class="cls-8" d="m3.28,25.84c.25,1.26-.65,2.25-.78,3.43-.1.88-.03,1.82-.53,2.62-.05.08-.12.12-.21.14-.09-.01-.16-.05-.22-.12.73-1.98.81-4.15,1.75-6.07Z"/>
    <path class="cls-51" d="m15.43,8.9c-1.67,1.59-3.33,3.18-5,4.76-.06-.05-.08-.1-.06-.14.02-.05.04-.07.06-.07,1.39-1.46,2.75-2.96,4.34-4.22.2-.16.37-.35.66-.32Z"/>
    <path class="cls-46" d="m6.27,19.3c-.07.23-.09.51-.22.7-1.06,1.53-1.5,3.34-2.32,4.98-.14-1.71,1.08-2.91,1.67-4.35.19-.46.4-1.01.88-1.33Z"/>
    <path class="cls-42" d="m26.06,72.36c.13.07.26.14.39.21.52.69,1.43.26,2.04.69-.02.05-.04.1-.06.15-1.65.29-2.89-.76-4.27-1.32-.38-.16-1.01.35-1.15-.4.42,0,.84-.02,1.27-.03.48.51,1.19.44,1.78.7Z"/>
    <path class="cls-54" d="m1.53,40.39c0-1.81,0-3.62,0-5.44,0-.07.01-.14.01-.2.1-.09.19-.08.28.02.04.27.08.55-.04.81,0,1.53,0,3.07.01,4.6-.02.65.33,1.34-.2,1.93-.02-.58-.05-1.16-.07-1.73Z"/>
    <path class="cls-48" d="m10.43,13.45c0,.07,0,.14,0,.22-.87,1.09-1.73,2.18-2.6,3.28.43-1.49,1.62-2.41,2.59-3.49Z"/>
    <path class="cls-25" d="m15.66,67.07c.73.5,1.6.79,2.15,1.54-1-.11-1.67-.7-2.15-1.54Z"/>
    <path class="cls-20" d="m20.39,70.17c.88.38,2.03.3,2.43,1.47-.7-.66-1.76-.75-2.43-1.47Z"/>
    <path class="cls-9" d="m18.04,68.82c.7.47,1.58.64,2.16,1.31-.81-.28-1.77-.32-2.16-1.31Z"/>
    <path class="cls-13" d="m12.8,64.92c.32.09.49.45.86.43.46.27.82.64,1.13,1.07-.72-.43-1.68-.53-1.99-1.5Z"/>
    <path class="cls-54" d="m2.37,45.39c-.06-.01-.12-.02-.18-.02-.38-.43-.39-1.03-.67-1.51-.18-.3.05-.49.2-.7.23.74.83,1.37.65,2.22Z"/>
    <path class="cls-52" d="m1.6,42.12c.38-.61.08-1.3.2-1.93.27.93.29,1.86-.01,2.79-.19-.26-.3-.53-.19-.85Z"/>
    <path class="cls-6" d="m7.64,17.17c-.32.79-.69,1.55-1.35,2.12.18-.88.67-1.56,1.35-2.12Z"/>
    <path class="cls-42" d="m31.27,73.83c.01.06.02.13.02.19-.43.01-.87-.03-1.29.05-.69.13-1.19-.1-1.57-.66,0,0,.05-.07.05-.07.92.19,1.84.42,2.79.48h0Z"/>
    <path class="cls-45" d="m1.76,34.74c-.07,0-.14,0-.21.01,0-.94,0-1.89-.02-2.83.08,0,.16,0,.23,0,.14.94.16,1.88-.01,2.82Z"/>
    <path class="cls-39" d="m1.52,43.87c.5.38.5.98.67,1.51,0,.15-.01.3-.02.46-.31-.62-.69-1.22-.65-1.96Z"/>
    <path class="cls-52" d="m7.14,57.76c.64.33.97.89,1.11,1.57-.49-.44-.83-.98-1.11-1.57Z"/>
    <path class="cls-47" d="m34.97,15.41c.09-.66.57-.74,1.1-.75,1.23-.02,2.46-.04,3.7-.05.07,0,.15.01.21.05.9.7,2.04.44,3.04.75-.48.3-1.05-.08-1.53.22-.42.39-.73.04-1.06-.16-1.82-.15-3.63-.16-5.45-.06Z"/>
    <path class="cls-34" d="m63.18,12.17c-2.25-2.05-4.58-3.99-7.2-5.56-.4-.24-1.02-.19-1.24-.74.14-.12.28-.11.42,0,3.15,1.57,5.87,3.71,8.26,6.29-.08.09-.15.1-.24.01Z"/>
    <path class="cls-18" d="m27.36,17.58c2.3-1.28,4.64-2.41,7.39-2.13-.02.37-.21.31-.43.18-.66-.07-1.3-.07-1.76.54-.06.08-.19.21-.24.2-1.16-.35-2.01.56-3.03.74-.48.08-.89.2-1.26.48-.22.15-.44.15-.67,0Z"/>
    <path class="cls-5" d="m41.48,15.63c.46-.44,1.02-.13,1.53-.22,1.08.5,2.26.74,3.38,1.12,1.43.48,2.68,1.23,3.97,1.93.02.06.03.13.03.2-.99-.07-1.67-.83-2.56-1.16-.42-.15-.74-.49-1.26-.39-.28.06-.61-.11-.76-.34-.34-.52-.81-.55-1.33-.43-.27.06-.55.08-.71-.11-.64-.74-1.47-.63-2.3-.61Z"/>
    <path class="cls-11" d="m34.32,15.63c.14-.06.29-.12.43-.18.07-.01.15-.03.22-.04,1.82-.53,3.64-.42,5.45.06-.68.33-1.41.12-2.11.16-1.03.06-2.07-.1-3.1.19-.29.08-.65.11-.9-.19Z"/>
    <path class="cls-6" d="m63.18,12.17c.08,0,.16,0,.24-.01.17.13.33.29.52.38.61.31.59.52.05.98-.49.42-.87.87-1.59.92-.42.03-.84.34-1.02.73-.31.66-.84.7-1.43.68.82-.83,1.76-1.49,2.82-1.98.99-.46,1.08-.88.41-1.71Z"/>
    <path class="cls-22" d="m55.16,5.86c-.14,0-.28,0-.42,0-1.2-.65-2.43-1.25-3.71-1.73-.53-.28-1.4.04-1.55-.89.16-.09.31-.11.46.02.77.55,1.73.64,2.54,1.09.9.5,1.93.77,2.68,1.52Z"/>
    <path class="cls-35" d="m49.94,3.26c-.16,0-.32.02-.48.03-1.31.35-2.31-.55-3.46-.84.03-.03.05-.07.08-.1,1.42-.24,2.58.57,3.86.92Z"/>
    <path class="cls-44" d="m53.42,21.07c.73.36,1.25.14,1.67-.53.3-.48.68-.9,1.18-1.18-.48.7-.89,1.46-1.46,2.07-.55.59-1.01.08-1.39-.36Z"/>
    <path class="cls-46" d="m27.36,17.58c.22,0,.44,0,.67,0-.42.29-.98.3-1.31.81-.2.3-.67.4-1.07.14.56-.34.98-.93,1.71-.96Z"/>
    <path class="cls-15" d="m51.24,19.34c.59.41,1.4.53,1.71,1.3-.67-.3-1.5-.39-1.71-1.3Z"/>
    <path class="cls-17" d="m20.86,22.63c.4-.56.8-1.13,1.51-1.37-.15.21-.3.42-.45.63-.42.15-.53.74-1.05.73Z"/>
    <path class="cls-30" d="m39.27,62.28c-.33,0-.66,0-1,0-1.01-.25-2.13.28-3.09-.41l-.8-.02c-.1-.02-.16-.08-.18-.18,0-.1.04-.18.11-.24h1.08c1.67.4,3.33.38,5,0,.14,0,.29-.02.43-.03.99.02,1.99.2,2.84-.6.52-.49,1.29-.22,1.95-.46,1.34-.49,2.49-1.4,3.89-1.73.08.04.11.09.08.13-.03.04-.06.06-.08.06-1.97,1.41-4.21,2.19-6.5,2.86-1.29-.05-2.48.51-3.74.63Z"/>
    <path class="cls-29" d="m16.29,47.12c-.59-.51-.84-1.37-.92-1.95-.25-1.72-1.05-3.35-.83-5.17.17-1.39.17-2.83.02-4.22-.15-1.4.94-2.49.74-3.85.16-.03.27.03.34.19-.2,2.51-1.14,4.93-.86,7.5.11,1.04.17,2.05.58,3.04.35.84,0,1.83.55,2.69.32.5.43,1.14.38,1.76Z"/>
    <path class="cls-27" d="m15.64,32.13c-.11-.06-.23-.12-.34-.19.74-1.63,1.16-3.39,2.17-4.9.4-.6.7-1.27,1.26-1.77.09.01.16.06.2.14-1.16,1.73-2.09,3.57-2.71,5.57-.13.42-.3.81-.58,1.15Z"/>
    <path class="cls-10" d="m34.32,61.43c0,.07,0,.14,0,.22-.72.3-1.4.02-2.04-.24-.4-.17-.81-.25-1.21-.37-.15-.01-.29-.02-.44-.03-.69-.25-1.2-.89-2.05-.81-.28.03-.56-.29-.6-.66.86.38,1.8.67,2.65.92,1.2.35,2.37.98,3.68.98Z"/>
    <path class="cls-10" d="m40.4,61.43c-1.67.76-3.33.65-5,0,1.67,0,3.33,0,5,0Z"/>
    <path class="cls-10" d="m26.97,59.22c-1.38-.46-2.46-1.38-3.52-2.33.42-.08.8.08,1.08.34.61.55,1.23,1.07,2.03,1.31.33.1.4.37.4.68Z"/>
    <path class="cls-14" d="m18.05,50.77c-.74-.81-1.36-1.69-1.48-2.83.67.76,1.19,1.6,1.5,2.56.05.09.04.18-.02.26Z"/>
    <path class="cls-52" d="m27.98,59.53c.19.31.44.64.81.6.81-.08,1.28.47,1.85.86-1.11-.46-2.41-.54-3.26-1.56.2.03.4.06.6.09Z"/>
    <path class="cls-51" d="m18.05,50.77c0-.09.02-.17.02-.26.41.63,1.15,1.09,1.11,1.97-.51-.48-1.01-.97-1.13-1.71Z"/>
    <path class="cls-26" d="m21.07,54.5c-.55-.34-1.18-.61-1.29-1.36.64.25,1.09.69,1.29,1.36Z"/>
    <path class="cls-48" d="m18.92,25.41c-.07-.05-.14-.09-.2-.14.16-.48.37-.92.85-1.16-.03.53-.21.98-.65,1.29Z"/>
    <path class="cls-33" d="m61.88,65.12c.25-.76.88-1.22,1.47-1.63.77-.53.59-.81-.07-1.2-1.49-.88-2.98-1.77-4.16-3.06.63-.05.93.51,1.38.77,1.08.62,2.09,1.38,3.18,1.97.83.45.88.94.37,1.62-.45.44-.94.84-1.38,1.29-.22.23-.42.51-.79.24Z"/>
    <path class="cls-41" d="m50.17,72.3c.78-.85,1.96-.89,2.9-1.45,1.24-.73,2.62-1.22,3.82-2.05.07.05.09.1.07.15-.02.05-.04.07-.07.07,0,.3-.03.55-.35.72-1.4.72-2.73,1.66-4.21,2.09-.79.23-1.36.83-2.17.9-.13-.14-.13-.29,0-.43Z"/>
    <path class="cls-24" d="m55.38,55.85c-.06-.04-.12-.08-.19-.1-.13-.61-.8-.51-1.14-.84.34-.32.68-.52,1.1-.08.98,1,1.98,1.99,2.98,2.98.22.22.3.48.3.78-.63-.3-1.12-.76-1.59-1.27-.52-.45-1.01-.94-1.46-1.47Z"/>
    <path class="cls-43" d="m50.17,72.3c0,.14,0,.28,0,.43-.6,0-1.25-.11-1.6.59-.04.08-.19.19-.26.17-1.66-.42-3.07,1.29-4.76.54-.03-.01-.07,0-.11,0,0-.07,0-.14,0-.21.95-.14,1.94-.14,2.8-.67l.03.03c.43-.25.91-.1,1.36-.12.44-.02.73-.26,1-.56.46-.46,1.05.08,1.54-.2Z"/>
    <path class="cls-49" d="m54.06,54.9c.59,0,1.15.04,1.14.84-.57-.55-.96-.45-1.59.1-1.25,1.12-2.51,2.28-4.1,2.95,0-.06,0-.12,0-.19,1.62-1.1,3.22-2.23,4.55-3.7Z"/>
    <path class="cls-41" d="m61.88,65.12c.61-.03.84-.58,1.23-.9.29-.24.5-.6.93-.62-.61,1.2-1.76,1.83-2.78,2.57-.48.35-.92.8-1.56.91.59-.8,1.45-1.3,2.17-1.96Z"/>
    <path class="cls-21" d="m56.9,69.03c0-.07,0-.15,0-.22.8-.5,1.51-1.12,2.4-1.48-.43,1.1-1.61,1.11-2.4,1.7Z"/>
    <path class="cls-52" d="m42.59,1.95c-1.23-.09-2.49.24-3.7-.19.72,0,1.44-.01,2.16-.02.51.08,1.06-.1,1.54.21Z"/>
    <path class="cls-52" d="m33.43,1.95c.02-.06.03-.13.04-.19.06,0,.13-.02.19-.03.8,0,1.59.02,2.39.03-.85.41-1.75.1-2.62.19Z"/>
    <path class="cls-52" d="m46.01,2.44c1.19.12,2.2,1,3.46.84.35.59,1.05.55,1.56.84-1.1.22-2-.5-2.92-.81-1.76-.59-3.65-.58-5.34-1.37.37-.29.74-.17,1.09.01.68.35,1.4.46,2.15.48Z"/>
    <path class="cls-52" d="m46.25,73.15c-.77.89-1.84.57-2.8.67-.14-.01-.28-.03-.43-.04,1.08-.21,2.15-.42,3.23-.63Z"/>
    <path class="cls-53" d="m31.27,73.82c-.96,0-1.93.11-2.79-.48-.34-.29-.75-.19-1.13-.2-.43,0-.78-.09-.9-.58,1.61.42,3.21.84,4.82,1.26Z"/>
    <path class="cls-52" d="m1.76,34.74c0-.94,0-1.88.01-2.82.07,0,.13,0,.2-.01-.09,1.23.22,2.47-.18,3.69-.01-.28-.02-.57-.03-.85Z"/>
    <path class="cls-52" d="m26.06,72.36c-.66-.07-1.37,0-1.78-.7.59.23,1.25.31,1.78.7Z"/>
    <path class="cls-52" d="m39.27,62.28c1.18-.62,2.45-.68,3.74-.63-.27.34-.65.19-.99.22-.5.04-.96-.11-1.33.54-.25.44-.94.07-1.42-.13Z"/>
    <path class="cls-52" d="m31.07,61.03c.73-.25,1.24.4,1.89.48.45.06.89.2,1.35.13.01.07.03.14.06.2-1.21.15-2.29-.22-3.31-.82Z"/>
    <path class="cls-52" d="m35.19,61.87c.99.45,2.1-.04,3.08.41-1.06.07-2.16.48-3.08-.41Z"/>
    <path class="cls-55" d="m48.64,72.5c-.03.57-.41.67-.88.67-.49,0-.99,0-1.48.01.73-.44,1.68-.1,2.36-.68Z"/>
    <path class="cls-52" d="m55.38,55.85c.59.38,1.09.87,1.47,1.47-.7-.27-1.19-.76-1.47-1.47Z"/>
    <path class="cls-52" d="m53.45,40.37c.42-1.36.06-2.75.2-4.12.73.33,1.14-.36,1.71-.55.93-.3.45-.99.5-1.6.08-.8-.29-1.68.59-2.44.51-.44.51-1.47.78-2.23.48-1.32,1.27-2.47,2-3.58,1.92-2.89,4.74-4.87,7.93-6.1,1.01-.39,2.01-1.56,3.37-.89.11.05.44-.07.47-.17.33-1.24,1.23-.7,1.99-.69,1.88.04,3.76.01,5.64.01.71,0,1.36-.03,1.95.61.54.57,1.47.37,2.22.62,1.8.61,3.34,1.64,4.9,2.62,2.39,1.52,4.06,3.68,5.31,6.23.42.86.57,1.94,1.49,2.53.03.02.06.07.06.09-.47,1.3.73,2.22.76,3.44.05,2.45-.24,4.91.19,7.35.09.5-.14,1.08-.48,1.26-.56.3-.58.8-.47,1.12.52,1.45-.84,2.14-1.24,3.21-.94,2.47-2.67,4.46-4.59,6.19-1.5,1.34-3.3,2.35-4.98,3.48-.15.1-.44.13-.62.06-.54-.2-.98-.27-1.18.43-.02.06-.09.15-.14.15-1.37.08-2.52.99-4,.89-1.62-.11-3.27-.27-4.9.02-.18.03-.38.11-.53.06-2.16-.77-4.45-1.25-6.47-2.35-.92-.5-1.86-1.06-2.63-1.91-.54-.6-1.42-.98-2.04-1.63-1.16-1.2-2.4-2.32-2.88-4.01-.05-.17-.29-.32-.47-.41-.64-.32-.99-.73-.54-1.45.12-.19.16-.36-.04-.57-1.25-1.31-1.48-2.97-1.49-4.68,0-.66-.3-1.1-.75-1.48-.24-.21-.51-.45-.86-.16-.27.23-.41.48-.28.85.31.86.42,1.75.34,2.66-.28-.95-.56-1.9-.83-2.85Z"/>
    <path class="cls-12" d="m77.73,16.3c.89.01,1.78-.04,2.66.06.41.05.93.2,1.07.75-1.24-.27-2.48-.55-3.72-.82Z"/>
    <path class="cls-52" d="m85.68,26.4c-1.51,1.07-1.51,1.26-.09,2.43.57.47.89,1.22,1.73,1.38.3.06.21.37.27.61.18.71.51,1.38.81,2.04.47,1.06,1.34,2.08,1.1,3.43-.09.49-.21,1.1.37,1.49.06.04.13.15.13.16-.88.82-.08,1.94-.5,2.82-.25.53-.6.98-.37,1.61.03.09-.07.29-.16.37-1.28.97-1.27,2.76-2.37,3.81-1.31,1.25-2.46,2.7-4.21,3.42-1.19.49-2.38.97-3.51,1.61-.62.35-1.46.25-2.11.2-1.31-.1-2.74.33-3.95-.57-.06-.04-.13-.11-.18-.1-1.37.3-2.15-.94-3.28-1.29-1.03-.32-1.72-1.25-2.49-1.98-.39-.37-.69-.82-1.21-1.04-.9-.38-1.21-1.19-1.57-2.02-.48-1.12-.55-2.45-1.54-3.33-.26-.23-.23-.47-.18-.77.3-1.83.47-3.68.2-5.53-.18-1.24.79-2,1.06-3.05.39-1.47,1.36-2.61,2.22-3.82.19-.26.44-.35.68-.5.64-.39,1.37-.67,1.75-1.39.11-.2.29-.34.53-.3,1.05.19,1.81-.45,2.58-.97.35-.23.67-.41,1.08-.37,1.04.11,2-.2,2.94-.57.65-.26,1.25-.24,1.77.28.16.16.35.34.56.28,1.52-.45,2.66.7,4,.98.75.15,1.34.73,1.95,1.26.71.63,1.03-1.08,2-.58Z"/>
    <path class="cls-1" d="m69.66,47.81c-1.1-.61-2.03-1.42-2.79-2.42-.45-.35-.52-.96-.94-1.33-.27-.75-.87-1.34-1.01-2.15h0c-.99-1.64-.5-3.49-.75-5.24-.07-.47,0-.98.24-1.37.48-.78.48-1.73.95-2.51.25-.53.33-1.15.86-1.53.84-1.07,1.87-1.95,2.83-2.9.94-.43,1.66-1.29,2.82-1.28.43,0,.71-.57,1.17-.68,1.57.21,3.14.05,4.7,0,.29,0,.61-.09.85.06,1.38.86,3.06,1.15,4.33,2.22,1.17,1,2.25,2.09,3.06,3.41.18.29.25.64.38.96.87,1.46,1.14,3.09,1.34,4.74,0,.07,0,.14,0,.22-.19,1.49-.37,2.98-1.07,4.34-.15.36-.31.71-.46,1.07-.43.84-.93,1.62-1.6,2.29-.74.71-1.52,1.38-2.3,2.04-.06,0-.12.02-.18.04-2.09,1.23-4.3,2.03-6.77,1.94-1.12-.04-2.12-.66-3.24-.64h0c-.64-.74-1.7-.69-2.42-1.27Z"/>
    <path class="cls-29" d="m82.94,28.67c-1.44-.7-3.05-1.02-4.35-2.03-.17-.13-.51-.19-.72-.12-1.2.41-2.44.04-3.64.25-.47.08-.77-.39-1.23-.27-.18.09-.36.19-.42-.13.77-.29,1.57.18,2.34-.1.58-.48,1.16-.43,1.74,0,2.13-.27,3.89.7,5.63,1.7.26.15.44.46.65.69Z"/>
    <path class="cls-23" d="m72.09,49.07c1.15-.31,2.16.42,3.27.43,2.16.03,4.14-.52,6.03-1.51.22-.11.47-.15.71-.23-.49.86-1.46,1.11-2.23,1.36-2.2.72-4.49,1.35-6.79.23-.32-.15-.74.07-.99-.29Z"/>
    <path class="cls-25" d="m65.37,32.79c-.28.9-.3,1.86-.83,2.72-.29.48-.36,1.14-.12,1.78.13.35.16.8.07,1.17-.22.92-.1,1.77.34,2.6.14.26.15.55.1.84-1.35-2.5-1.1-5.07-.26-7.62.16-.5.06-1.2.7-1.49Z"/>
    <path class="cls-29" d="m72.58,26.37c.14.04.28.09.42.13-.41.6-.93.83-1.71.9-.79.07-1.39.88-2.23,1.06-.07-.05-.09-.1-.07-.16.02-.05.04-.08.07-.08.95-1.04,2.35-1.24,3.52-1.85Z"/>
    <path class="cls-27" d="m69.06,28.22c0,.08,0,.16,0,.24-.75,1.13-1.74,2.02-2.83,2.8.5-1.43,1.61-2.28,2.83-3.03Z"/>
    <path class="cls-52" d="m76.65,26.27c-.58,0-1.16,0-1.74,0,.12-.42-.32-1.18.41-1.21.65-.03,1.38.27,1.33,1.21Z"/>
    <path class="cls-19" d="m87.71,37.77c-.52-1.56-.67-3.22-1.34-4.74.07.02.17.03.19.07.68,1.48,1.45,2.94,1.14,4.67Z"/>
    <path class="cls-19" d="m86.64,42.34c.36-1.45.71-2.9,1.07-4.34.21,1.59-.17,3.03-1.07,4.34Z"/>
    <path class="cls-16" d="m82.28,47.73c.53-.92,1.4-1.49,2.19-2.14.14.14.12.29,0,.43-.51.85-1.28,1.36-2.19,1.7Z"/>
    <path class="cls-4" d="m84.47,46.03c0-.14,0-.29,0-.43.57-.73,1.14-1.46,1.71-2.2-.22,1.11-.93,1.89-1.71,2.63Z"/>
    <path class="cls-23" d="m69.66,47.81c.81.41,1.92.27,2.42,1.27-.79-.45-1.82-.45-2.42-1.27Z"/>
    <path class="cls-26" d="m64.93,41.9c.39.71.88,1.37,1.12,2.16-.07.09-.15.1-.23,0-.25-.74-1.05-1.26-.88-2.17Z"/>
    <path class="cls-16" d="m65.81,44.07c.08,0,.15,0,.23,0,.48.31.61.85.83,1.32-.66-.19-.65-.92-1.06-1.31Z"/>
    <path class="cls-1" d="m86.05,35.3c-.42.81-.1,1.5.23,2.19.03.07.1.16.08.19-.65,1.16-.3,2.54-.84,3.72-.13.29-.3.58-.39.88-.26.92-.72,1.7-1.38,2.41-1.37,1.46-3.07,2.46-4.8,3.36-.63.32-1.53.12-2.31.14-.87.02-1.74.08-2.6-.01-1.59-.17-2.91-.95-4.22-1.84-1.14-.77-1.95-1.78-2.75-2.84-.57-.76-.85-1.59-1.11-2.52-.38-1.36-.66-2.7-.64-4.11,0-.17-.13-.43-.05-.51,1.15-1.13.97-2.81,1.71-4.1.21-.36.54-.74.9-.91.63-.3,1.04-.76,1.37-1.33.25-.44.55-.74,1.1-.73.17,0,.42-.03.5-.14.69-.96,2-.75,2.8-1.52.25-.24.73-.38,1.13-.26.75.24,1.48.26,2.23,0,.13-.05.33-.06.42,0,1.86,1.46,4.53,1.51,6.11,3.34,1.14,1.31,1.96,2.9,2.51,4.58Z"/>
  </g>
</svg>