<svg width="100%" height="100%" viewBox="0 0 140 26" xmlns="http://www.w3.org/2000/svg">
<g id="Didomi-logo/Dark">
<path id="Union" fill-rule="evenodd" clip-rule="evenodd" d="M0 24.8487C0 25.065 0.17538 25.2404 0.391722 25.2404H11.1571C13.7797 25.2404 16.1091 24.7456 18.1352 23.7442L18.1385 23.7425C20.1616 22.7193 21.7515 21.2954 22.8974 19.4712L22.8986 19.4693C24.0481 17.616 24.6163 15.4548 24.6163 13C24.6163 10.5235 24.0485 8.36104 22.8974 6.52869C21.7513 4.70416 20.1608 3.29112 18.1369 2.29042C16.1103 1.26588 13.7803 0.759521 11.1571 0.759521H0.391722C0.17538 0.759521 0 0.934901 0 1.15124V24.8487ZM17.3537 16.6936L17.3507 16.6988C16.7579 17.7363 15.9121 18.5417 14.8033 19.1177C13.7186 19.6704 12.4172 19.9544 10.8863 19.9544H6.2677V6.04548H10.8863C12.4157 6.04548 13.7156 6.34026 14.7993 6.914L14.8032 6.91605L14.8074 6.91817C15.914 7.47148 16.7584 8.26454 17.3507 9.30116L17.3528 9.30479L17.3556 9.30937C17.9665 10.3206 18.2809 11.5452 18.2809 13C18.2809 14.4306 17.9671 15.6572 17.3537 16.6936Z" fill="#0D2632"/>
<path id="Union_2" d="M29.4113 24.8487C29.4113 25.065 29.5867 25.2404 29.803 25.2404H35.2873C35.5036 25.2404 35.679 25.065 35.679 24.8487V1.15124C35.679 0.934901 35.5036 0.759521 35.2873 0.759521C32.0417 0.759521 29.4103 3.38989 29.41 6.63546C29.4095 12.7065 29.4113 18.7776 29.4113 24.8487Z" fill="#0D2632"/>
<path id="Union_3" fill-rule="evenodd" clip-rule="evenodd" d="M41.2949 24.8487C41.2949 25.065 41.4703 25.2404 41.6866 25.2404H52.452C55.0746 25.2404 57.404 24.7456 59.4302 23.7442L59.4334 23.7425C61.4565 22.7193 63.0464 21.2954 64.1924 19.4712L64.1936 19.4693C65.3431 17.616 65.9112 15.4548 65.9112 13C65.9112 10.5235 65.3435 8.36104 64.1924 6.52869C63.0462 4.70416 61.4558 3.29112 59.4318 2.29042C57.4053 1.26588 55.0753 0.759521 52.452 0.759521H41.6866C41.4703 0.759521 41.2949 0.934901 41.2949 1.15124V24.8487ZM56.1023 6.91817C57.2089 7.47148 58.0533 8.26454 58.6457 9.30116L58.6477 9.30464L58.6505 9.30937C59.2614 10.3206 59.5758 11.5452 59.5758 13C59.5758 14.4306 59.2621 15.6572 58.6487 16.6936L58.6457 16.6988C58.0528 17.7363 57.207 18.5417 56.0982 19.1177C55.0135 19.6704 53.7121 19.9544 52.1812 19.9544H47.5626V6.04548H52.1812C53.7106 6.04548 55.0105 6.34026 56.0942 6.914L56.0981 6.91605L56.1023 6.91817Z" fill="#0D2632"/>
<path id="Union_4" fill-rule="evenodd" clip-rule="evenodd" d="M78.102 24.5192L78.1038 24.5199C79.7279 25.1376 81.4844 25.4444 83.3693 25.4444C85.2323 25.4444 86.9567 25.1375 88.538 24.5188C90.1348 23.9026 91.5213 23.0443 92.6925 21.9419C93.8852 20.8179 94.8147 19.4979 95.4793 17.9853L95.4802 17.9833C96.1465 16.4436 96.4779 14.781 96.4779 13C96.4779 11.1981 96.147 9.54506 95.4788 8.04689C94.8146 6.53527 93.8858 5.21623 92.694 4.09275C91.5228 2.96772 90.1357 2.09761 88.5377 1.48104C86.9559 0.862159 85.2204 0.555557 83.336 0.555557C81.4727 0.555557 79.7378 0.862511 78.1353 1.48069C76.5368 2.09729 75.1391 2.96724 73.9462 4.09144C72.7534 5.21546 71.8241 6.53528 71.1595 8.04791L71.1575 8.0526C70.5137 9.57018 70.1942 11.2209 70.1942 13C70.1942 14.779 70.5137 16.4298 71.1575 17.9473L71.1595 17.952C71.8234 19.463 72.7405 20.782 73.9101 21.9058L73.9129 21.9085C75.1058 23.0327 76.5036 23.9026 78.102 24.5192ZM86.0486 19.5491L86.0453 19.5505C85.2338 19.8834 84.3324 20.0529 83.336 20.0529C82.3399 20.0529 81.426 19.8835 80.5902 19.5491C79.7536 19.2145 79.024 18.7349 78.3981 18.1096C77.7943 17.4843 77.3126 16.7425 76.9542 15.8799C76.6195 14.9992 76.4502 14.0404 76.4502 13C76.4502 11.9356 76.6201 10.9778 76.9536 10.1215C77.3113 9.25997 77.8033 8.51844 78.4289 7.89276C79.0567 7.26496 79.7769 6.78478 80.5918 6.45015C81.4272 6.11623 82.3405 5.94706 83.336 5.94706C84.3322 5.94706 85.2461 6.11645 86.0819 6.4508C86.9184 6.78543 87.6357 7.26441 88.2384 7.88792L88.2431 7.89276C88.8679 8.51762 89.3482 9.25776 89.6837 10.1176C89.6847 10.1202 89.6858 10.1228 89.6868 10.1254C90.0414 10.9805 90.2219 11.9368 90.2219 13C90.2219 14.0631 90.0414 15.0194 89.6868 15.8745C89.6858 15.8771 89.6847 15.8797 89.6837 15.8823C89.3482 16.7422 88.8679 17.4823 88.2431 18.1072C87.6167 18.7337 86.8863 19.214 86.0486 19.5491Z" fill="#0D2632"/>
<path id="Union_5" d="M100.759 24.8487C100.759 25.065 100.934 25.2404 101.15 25.2404H106.296C106.512 25.2404 106.688 25.065 106.688 24.8487V12.3298L112.901 22.5471C112.972 22.6639 113.099 22.7352 113.236 22.7352H115.707C115.845 22.7352 115.973 22.6625 116.044 22.5439L122.296 12.0439L122.323 24.8495C122.324 25.0655 122.499 25.2404 122.715 25.2404H127.861C127.965 25.2404 128.065 25.199 128.138 25.1253C128.212 25.0516 128.253 24.9516 128.252 24.8476V1.15012C128.252 0.93422 128.077 0.759521 127.861 0.759521H123.291C123.152 0.759521 123.024 0.832455 122.954 0.951412L114.56 15.1027L106.022 0.948906C105.951 0.83137 105.824 0.759521 105.687 0.759521H101.15C100.934 0.759521 100.759 0.934901 100.759 1.15124V24.8487Z" fill="#0D2632"/>
<path id="Union_6" d="M133.732 24.8487C133.732 25.065 133.908 25.2404 134.124 25.2404H139.608C139.825 25.2404 140 25.065 140 24.8487V1.15124C140 0.934901 139.825 0.759521 139.608 0.759521C136.363 0.759521 133.732 3.39029 133.732 6.63552C133.732 12.7066 133.732 18.7776 133.732 24.8487Z" fill="#0D2632"/>
</g>
</svg>
