<?xml version="1.0" encoding="UTF-8"?>
<svg id="Calque_2" data-name="Calque 2" xmlns="http://www.w3.org/2000/svg" viewBox="0 0 72.03 71.94">
  <defs>
    <style>
      .cls-1 {
        fill: #fff;
      }

      .cls-2 {
        fill: #d6d8d9;
      }

      .cls-3 {
        fill: #5dc395;
      }
    </style>
  </defs>
  <g id="Calque_1-2" data-name="Calque 1">
    <path class="cls-2" d="m0,29c.02-5.82.02-11.65.06-17.47C.11,3.97,3.89.05,11.3.03c16.48-.05,32.95-.05,49.43,0,7.41.02,11.19,3.94,11.24,11.5.04,5.82.04,11.65.06,17.48-.02,10.31-.04,20.62-.07,30.94-.03,8.19-3.7,11.97-11.75,11.98-16.13.02-32.27.02-48.4,0-8.04-.01-11.72-3.79-11.75-11.98-.03-10.31-.05-20.62-.07-30.94Z"/>
    <path class="cls-1" d="m36.02,69.94c-8.14,0-16.29.02-24.43,0-6.66-.03-9.51-2.75-9.52-9.25-.03-16.45-.03-32.91.01-49.36.02-6.51,2.84-9.26,9.5-9.27,16.29-.03,32.58-.03,48.86,0,6.82.01,9.5,2.78,9.51,9.76.02,16.12.03,32.24.01,48.37,0,7.15-2.69,9.75-10.02,9.76-7.98.02-15.96,0-23.93,0Z"/>
    <path class="cls-3" d="m42.35,52.96c-2.57,0-5.25-.31-7.83.07-4.85.71-6.41-1.54-5.41-5.78,1.09-4.61.64-9.24,1.03-13.85.15-1.77-.14-3.05-1.02-4.57-2.44-4.19-.66-9.16,3.76-11.2,3.41-1.58,8.74.65,10.55,4.2,1.34,2.63.23,5.2-.86,7.07-2.06,3.53-1.42,6.82-.96,10.43.56,4.37.52,8.82.76,13.62Z"/>
  </g>
</svg>