<?xml version="1.0" encoding="UTF-8"?>
<svg id="Calque_2" data-name="Calque 2" xmlns="http://www.w3.org/2000/svg" viewBox="0 0 100 100">
  <defs>
    <style>
      .cls-1 {
        fill: #fcfdfc;
      }

      .cls-2 {
        fill: #fff;
      }

      .cls-3 {
        fill: #fdfefd;
      }

      .cls-4 {
        fill: #98c69e;
      }

      .cls-5 {
        fill: #91c297;
      }

      .cls-6 {
        fill: #83ba8a;
      }

      .cls-7 {
        fill: #90c195;
      }

      .cls-8 {
        fill: #bad8bd;
      }

      .cls-9 {
        fill: #84bb8b;
      }

      .cls-10 {
        fill: #a9cfae;
      }

      .cls-11 {
        fill: #bedbc1;
      }

      .cls-12 {
        fill: #bcdabf;
      }

      .cls-13 {
        fill: #c4dec7;
      }

      .cls-14 {
        fill: #c9e1cc;
      }

      .cls-15 {
        fill: #d8e9da;
      }

      .cls-16 {
        fill: #cae1cc;
      }

      .cls-17 {
        fill: #deede0;
      }

      .cls-18 {
        fill: #93c399;
      }

      .cls-19 {
        fill: #a1caa5;
      }

      .cls-20 {
        fill: #86bb8d;
      }

      .cls-21 {
        fill: #99c69f;
      }

      .cls-22 {
        fill: #549f5d;
      }

      .cls-23 {
        fill: #55a05e;
      }

      .cls-24 {
        fill: #71b079;
      }
    </style>
  </defs>
  <g id="Calque_1-2" data-name="Calque 1">
    <g>
      <path class="cls-2" d="m99.92,99.92c-32.11,0-64.22-.05-96.34.08-2.98.01-3.59-.6-3.58-3.58.14-30.95.14-61.89,0-92.84C-.01.6.6-.01,3.58,0c30.95.14,61.89.14,92.84,0,2.98-.01,3.59.6,3.58,3.58-.14,32.11-.08,64.22-.08,96.34Z"/>
      <path class="cls-23" d="m50.75,10.07c11.97,0,23.95.15,35.92-.09,3.6-.07,4.36,1.08,4.34,4.48-.14,24.11-.13,48.23-.01,72.34.02,3.17-.72,4.23-4.08,4.21-24.28-.15-48.56-.15-72.84,0-3.37.02-4.09-1.06-4.07-4.22.12-24.11.13-48.23-.01-72.34-.02-3.41.75-4.54,4.34-4.47,12.14.23,24.28.09,36.42.09Z"/>
      <path class="cls-1" d="m45.12,39.79c.3.04.6.11.89.21,2.44,1.93,4.83,3.9,6.45,6.63,0,1.04.43,1.99.61,3,.41,2.95.43,5.9-.02,8.85-1.07,6.55-6.1,8.94-11.51,10.94-3.27.17-6.51.15-9.54-1.37-2.84-2.62-6.38-4.69-7.06-9.01-.21-5.11-2.01-10.46,2.25-14.89,1.99-1.65,3.98-3.3,5.97-4.94,4.08-1.83,8.09-2.01,11.96.58Z"/>
      <path class="cls-3" d="m63.96,66.98c-.79-.45-1.54-.94-1.7-1.95-.45-5.45-.49-10.92-.19-16.36.21-3.82-.71-6.07-4.83-6.17-1.98-2.5.45-2.68,1.8-3.43,4.81-.25,1.7-5.17,4.05-6.87,1.07-1.21,2.34-1.25,3.72-.66.9.65,1.22,1.63,1.1,2.62-.63,5.12,2.3,5.4,6.09,4.58,1.32.8.96,2.02.81,3.2-.81.81-1.85.57-2.8.55-2.92-.08-4.17,1.26-4.06,4.21.19,5.27-.18,10.55.19,15.82.2.5.5.92.91,1.27.33.34.66.67.99,1.01.94,1.44,2.92.01,4.29,2-3.56,1.79-6.91,1.59-10.36.2Z"/>
      <path class="cls-14" d="m68.09,63.86c-2.35-6.54-1.37-13.33-.63-19.88.39-3.5,4.8-1.42,7.35-2.05-1.35,2.28-4.31.19-5.78,2.14-1.24,4.79-.24,9.66-.58,14.48-.12,1.77.34,3.58-.36,5.31Z"/>
      <path class="cls-12" d="m57,42c5.99.23,6.16.23,5.98,6.3-.17,5.58.93,11.22-.71,16.74-.11-.34-.23-.69-.34-1.03-.95-4.87-.13-9.8-.44-14.69-.11-1.76.53-3.61-.53-5.28l.04-.04c-.97-1.39-3.73.8-3.99-2Z"/>
      <path class="cls-10" d="m41.87,68.88c4.04-2.61,9.45-3.8,10.22-9.81.89-.93-.25-2.74,1.44-3.34.47.06.8.31,1.02.73.27.94.07,1.77-.54,2.52-1.71,4.92-4.79,8.48-9.91,10.04-.78.5-1.53.52-2.23-.14Z"/>
      <path class="cls-18" d="m45.12,39.79c-3.95-.85-7.94-1.01-11.96-.58,3.42-3.53,9.42-3.24,11.96.58Z"/>
      <path class="cls-6" d="m66.85,32.17c-1.25,0-2.51.02-3.76.02-.18-1.59-.15-3.08,2.04-3.03,1.88.04,3.22,1.15,3.58,2.83.41,1.89.26,3.91.36,5.87-1.6.62-1.41-.61-1.58-1.51-.26-1.39.59-2.94-.64-4.18Z"/>
      <path class="cls-9" d="m60.95,44.03c2.06,3,.77,6.38.97,9.57.22,3.45.01,6.93,0,10.4-2.14-6.57-.39-13.33-.97-19.97Z"/>
      <path class="cls-20" d="m68.09,63.86c-.04-5.41-.11-10.83-.11-16.24,0-1.25-.37-2.69,1.05-3.54,0,6.57.01,13.14.02,19.71,0,0-.47.13-.47.13,0,0-.49-.05-.49-.05Z"/>
      <path class="cls-16" d="m66.85,32.17c2.46,1.22-.25,4.47,2.22,5.68,1.61.45,3.51-.66,4.92.88-4.95,2.46-6.81,1.49-7.03-3.67-.04-.97-.08-1.93-.12-2.9Z"/>
      <path class="cls-19" d="m27.2,44.15c-2.63,4.68-2.02,9.85-2.25,14.89-2.2-6.24-1.32-12.08,2.25-14.89Z"/>
      <path class="cls-15" d="m63.96,66.98h9.05c-.43-1.7-2.69-.56-2.97-2.19,1.91.61,5.57-1.5,4.89,3.14-3.32.92-6.66.72-9.99.11-.32-.35-.65-.71-.97-1.06Z"/>
      <path class="cls-5" d="m57,42c.82,1.7,3.15.35,3.99,2-.64,0-1.29.03-1.93.02-1.83-.04-3.91-.14-3.91-2.53,0-2.41,2-2.54,3.89-2.41-.43,1.15-2.42,1.21-2.05,2.93Z"/>
      <path class="cls-10" d="m52.12,48.89c-.08-.92-.16-1.85-.23-2.77-.41-.49-.35-.9.19-1.24.68,1.36,1.36,2.73,2.04,4.09,1,2.37,3.02,4.73.03,7.12l-.33-.23c-1.4-2.12-.78-4.73-1.69-6.96Z"/>
      <path class="cls-24" d="m54.14,56.09c1.9-2.38,0-4.74-.03-7.12,2.69,3.5,2.66,6.71-.1,10.02.04-.97.09-1.93.13-2.9Z"/>
      <path class="cls-4" d="m41.87,68.88c.74.05,1.49.09,2.23.14-4.19,1.59-8.28,1.98-12.1-.98,3.29.22,6.51,1.44,9.87.84Z"/>
      <path class="cls-13" d="m52.07,44.88c-.06.41-.12.83-.19,1.24-2.12-1.88-4.31-3.7-5.87-6.12,3.14.24,4.28,2.96,6.06,4.88Z"/>
      <path class="cls-21" d="m64.93,68.04c3.33-.04,6.66-.07,9.99-.11-3.31,1.82-6.65,1.6-9.99.11Z"/>
      <path class="cls-22" d="m45.17,60.08c-.06,1.68-.5,3.13-2.23,3.84-6.7,2.03-9.96,0-10.99-6.75-.5-3.29-.28-6.52.42-9.75,1.25-3.53,3.61-5.19,7.49-4.94,3.86.24,5.63,3.06,6.49,5.88,1.18,3.84,1.74,8.07-1.17,11.72Z"/>
      <path class="cls-8" d="m45.17,60.08c.7-2.71.82-5.46.84-8.25.03-3.83-1.27-6.99-4.82-8.44-3.61-1.47-6.32.5-8.31,3.52-.27.38-.57.4-.88.06,1.2-4.39,4.41-5.43,8.44-4.99,4.6.5,6.8,4.25,7.19,7.75.37,3.29,2.95,8.08-2.45,10.35Z"/>
      <path class="cls-7" d="m32,46.97c.3.01.59,0,.88-.06.02,2.45.06,4.9.07,7.35.04,8.72,1.29,9.93,9.99,9.65-4.88,3.65-7.51,2.71-10.96-3.89-1.79-4.35-1.82-8.7,0-13.05h.01Z"/>
      <path class="cls-11" d="m31.98,46.97c-.83,4.35-.81,8.7,0,13.05-2.63-4.35-2.79-8.7,0-13.05Z"/>
      <path class="cls-17" d="m52.12,48.89c1.41,2.12,1.93,4.45,1.69,6.97-.57,1.07-1.14,2.14-1.72,3.21,0-3.39.02-6.79.03-10.18Z"/>
    </g>
  </g>
</svg>