<?xml version="1.0" encoding="UTF-8"?>
<svg id="Calque_2" data-name="Calque 2" xmlns="http://www.w3.org/2000/svg" viewBox="0 0 100 100">
  <defs>
    <style>
      .cls-1 {
        fill: #f8d498;
      }

      .cls-2 {
        fill: #f3ae27;
      }

      .cls-3 {
        fill: #f7d193;
      }

      .cls-4 {
        fill: #f6cb85;
      }

      .cls-5 {
        fill: #f6ca82;
      }

      .cls-6 {
        fill: #f6cc88;
      }

      .cls-7 {
        fill: #fef2bf;
      }

      .cls-8 {
        fill: #fff1a9;
      }

      .cls-9 {
        fill: #ffe44e;
      }

      .cls-10 {
        fill: #fffffe;
      }

      .cls-11 {
        fill: #fff;
      }

      .cls-12 {
        fill: #fffdf5;
      }

      .cls-13 {
        fill: #ffee92;
      }

      .cls-14 {
        fill: #ffee90;
      }

      .cls-15 {
        fill: #f5c26e;
      }

      .cls-16 {
        fill: #fff09a;
      }

      .cls-17 {
        fill: #ffe347;
      }

      .cls-18 {
        fill: #ffed88;
      }

      .cls-19 {
        fill: #fff09e;
      }

      .cls-20 {
        fill: #ffe971;
      }

      .cls-21 {
        fill: #ffe036;
      }

      .cls-22 {
        fill: #fff5c1;
      }

      .cls-23 {
        fill: #fff5c0;
      }

      .cls-24 {
        fill: #ffe75e;
      }

      .cls-25 {
        fill: #ffd909;
      }

      .cls-26 {
        fill: #ffd90b;
      }

      .cls-27 {
        fill: #ffe75f;
      }

      .cls-28 {
        fill: #ffe875;
      }

      .cls-29 {
        fill: #ffe865;
      }

      .cls-30 {
        fill: #ffe866;
      }

      .cls-31 {
        fill: #ffe65c;
      }

      .cls-32 {
        fill: #ffe763;
      }

      .cls-33 {
        fill: #f2ac24;
      }

      .cls-34 {
        fill: #ffd805;
      }

      .cls-35 {
        fill: #ffd802;
      }

      .cls-36 {
        fill: #ffd803;
      }

      .cls-37 {
        fill: #ffd806;
      }

      .cls-38 {
        fill: #ffd807;
      }

      .cls-39 {
        fill: #fef0b9;
      }

      .cls-40 {
        fill: #fbe6b3;
      }

      .cls-41 {
        fill: #fae2b9;
      }

      .cls-42 {
        fill: #fed703;
      }

      .cls-43 {
        fill: #fed706;
      }
    </style>
  </defs>
  <g id="Calque_1-2" data-name="Calque 1">
    <g>
      <path class="cls-11" d="m49.33,99.92c-15.29,0-30.58-.06-45.86.06-2.5.02-3.48-.12-3.47-3.17C.16,65.57.13,34.33.03,3.09.02.62.57.02,3.08.03,34.32.13,65.56.15,96.8,0c3.02-.01,3.19.93,3.18,3.45-.09,31.07-.11,62.14.02,93.22.01,2.75-.53,3.36-3.31,3.33-15.78-.17-31.57-.08-47.36-.08Z"/>
      <path class="cls-35" d="m31.31,24.99c.73-6.84,5.46-12.57,11.58-14.02,3.92-2.2,8.07-1.5,12.2-.96,6.85,1.81,11.34,5.97,12.92,13.01.95,4.28,2.64,8.63-1.05,12.53-5.95-.75-4.84-5.73-5.7-9.52-.89-4.26-4.22-6.52-7.36-8.93-2.84-1.22-5.65-1.14-8.45.14-4.87,2.72-7.44,6.73-7.23,12.43.07,1.83-.39,3.59-1.91,4.87-.9.66-1.88,1.1-3.02,1.08-4.59-2.81-1.21-7.11-1.98-10.63Z"/>
      <path class="cls-33" d="m34.95,80.07c-5.46-4.01-9.25-9.06-9.98-16.02-1.28-3.38-1.04-6.76-.01-10.14.07-1.28.13-2.56.2-3.83,1.22-2.93,2.73-5.69,4.81-8.11,1-1.05,2-2.09,3-3.14,1.09-1.5,2.34-2.84,3.92-3.86,1.52-1.37,3.3-2.09,5.34-2.23,5.23-.15,10.49-2.22,15.68.26,3.59,1.1,6.91,2.62,9.17,5.82,2.7,2.2,4.92,4.75,6.03,8.12,2.12,1.43,2.98,3.47,2.87,5.97.71,4.78.16,9.49-.92,14.15-2.57,3.12-3.31,7.57-7.09,9.82-.23-.1-.46-.2-.69-.3-.61-.53-.9-1.21-.91-2.01.04-.51.18-.99.4-1.45,4.66-6.43,6.24-13.44,4.13-21.2-2.33-8.59-9.48-14.16-19.53-15.14-8.4-.81-17.34,4.58-21.29,12.85-3.48,7.28-1.68,16.43,3.62,22.8,4.27,5.13,9.96,6.8,15.9,8.37,1.37,2.03,1.59,3.58-1.58,3.62-1.1.02-2.21.01-3.31-.02-3.02-1.96-6.56-2.76-9.75-4.34Z"/>
      <path class="cls-43" d="m67.96,76.89c-.37,1.25.56,2.06,1.03,3.03-3.14,5.77-10.99,9.09-17.1,7.24-.77-2.21-1.04-4.28,1.45-5.65.46-.26.95-.46,1.46-.61,2.78-.57,5.4-1.48,7.78-3.13,1.62-1.12,3.36-2.36,5.43-.78l-.04-.1Z"/>
      <path class="cls-2" d="m52.21,86.9c6.66.25,12-2.69,16.78-6.98,1.52.98,2.97,1.96.41,3.45-2.51,1.46-4.49,3.74-7.35,4.66-3.22,1.45-6.57,1.81-10.03,1.13-.56-.81-.69-1.57.19-2.26Z"/>
      <path class="cls-39" d="m67.07,38.83c-3.25-1.21-5.74-3.96-9.28-4.58-.27-.48-.26-.95.03-1.41,3.48-1.5,2.18-5.58,4.23-7.86,1.1.79,1.06,2.02.89,3.09-.47,3.03.63,5.25,3.1,6.91,2.73,1.15,2.33-.84,2.48-2.41.26-2.86-.68-5.81.61-8.6,1.2,5.21,2.49,10.44-2.05,14.86Z"/>
      <path class="cls-40" d="m52.21,86.9l-.08,1.86c.28.25.36.48.25.71-.11.22-.21.33-.31.33-.21-6.42-6.11-3.82-9.14-5.77.33-.55.71-.59,1.14-.12,1.43-1.28,6.14,2.91,4.86-2.91-.67-.89-.86-1.86-.44-2.91,1.18-1.53,2.45-1.87,3.31.15.59,1.39,1.45,2.55,2.27,3.77-2.03,1.09-2.39,2.82-1.87,4.89Z"/>
      <path class="cls-7" d="m37.1,36.08c-1.38.92-2.76,1.83-4.14,2.75-3.86-3.78-3.86-8.13-1.92-12.78,1.01,2.31.27,4.73.47,7.09.14,1.58.22,3.14,2.46,1.82.66-.37,1.31-.73,1.97-1.1-.38,1.14.46,1.64,1.16,2.22Z"/>
      <path class="cls-15" d="m75.05,67.07c-.21-4.72,1.07-9.44.06-14.16,1.07-.34,1.35.51,1.76,1.16.19,4.45.52,8.91-1.81,13Z"/>
      <path class="cls-4" d="m24.96,53.91c0,3.38,0,6.76.01,10.14-2.94-3.38-2.67-6.76-.01-10.14Z"/>
      <path class="cls-31" d="m69.12,23.96c-.04,3.07-.08,6.13-.13,9.2-.04,2.12-.43,3.72-2.96,1.81,2.17-.15,1.93-1.76,1.93-3.2.02-2.91.03-5.83.04-8.74.37.31.74.63,1.11.94Z"/>
      <path class="cls-24" d="m33.98,34.96c-2.18,1.92-2.86.63-2.94-1.47-.09-2.48,0-4.96,0-7.44.09-.35.17-.71.26-1.06,1.6,1.9.43,4.14.74,6.2.22,1.49-.69,3.53,1.94,3.78Z"/>
      <path class="cls-9" d="m55.09,10.01c-4.08.16-8.21-.31-12.2.96,3.85-3.11,8-2.35,12.2-.96Z"/>
      <path class="cls-41" d="m76.86,54.07c-.59-.39-1.17-.77-1.76-1.16.43-2.36-1.03-4.08-2.01-5.96,3.71,1.07,3.81,4.06,3.77,7.12Z"/>
      <path class="cls-1" d="m29.97,41.97c-1.07,3.02-2.59,5.77-4.81,8.11.28-3.49,1.95-6.15,4.81-8.11Z"/>
      <path class="cls-6" d="m44.07,83.91c-.38.04-.76.08-1.14.12-2.74-1.16-5.74-1.79-7.98-3.96,3.36.53,6.53,1.48,9.12,3.84Z"/>
      <path class="cls-3" d="m52.07,89.8c.02-.35.04-.69.06-1.04,3.4,1.06,6.6-.74,9.92-.74-2.96,2.67-6.51,1.98-9.98,1.78Z"/>
      <path class="cls-10" d="m37.1,36.08c-1.83.02-1.45-1.12-1.16-2.22.74-.91,1.26-1.86,1.09-3.11-.97-6.86,2.13-11.54,7.97-14.74,3.3-.52,6.61-1.04,9.86.27,2.77,2.59,6.65,4.25,7.18,8.69-.02,1.31-.2,2.64-.03,3.93.41,3.22-.96,4.58-4.13,4.3-5.38-1.13-10.71-1.08-15.95.71-2.06-.29-3.38,1.08-4.82,2.17Z"/>
      <path class="cls-27" d="m54.86,16.29c-3.29-.09-6.57-.18-9.86-.27,3.33-1.38,6.63-1.9,9.86.27Z"/>
      <path class="cls-42" d="m49.23,77.84c-.1,1.05-.2,2.1-.3,3.15-10.29,1.59-20.66-10.32-21.8-18.77-1.72-12.72,5.3-22.02,15.16-25.56,10.16-3.65,21.42-.22,27.46,9.17,4.64,7.2,5.62,20.72-2.98,28.24-4.63-1-3.13-3.97-1.75-6.38,2.85-4.97,2.95-10.09,1.57-15.41-.65-2.49-1.67-4.68-4.67-4.98-1.59-3.83-5.03-5.11-8.6-6.2-3.63-1.67-7.02-.66-10.36.91-4.22,2.84-7.54,6.49-9.94,10.97-1,3.85-1.27,7.67.32,11.44,2.49,4.77,5.45,9,11.28,9.97.93.14,1.77.49,2.6.91.95.62,2.09,1.09,2.03,2.52Z"/>
      <path class="cls-20" d="m62.04,46.99c3.76-1.36,5.02,1.95,5.56,3.99,1.45,5.53,2.36,11.2-1.16,16.64-1.16,1.8-3.75,4.55.33,6.46.04.33.03.65-.02.98-.42.29-.89.4-1.4.36-2.97-1.2-3.86-3.58-3.74-6.54,1.98-2.55,3.33-5.37,3.79-8.59.82-1.16.89-2.34.03-3.52-.65-3.01-1.2-6.07-4.53-7.46-.28-.41-.4-.85-.4-1.34.23-.76.61-1.31,1.54-.98Z"/>
      <path class="cls-8" d="m65.87,75.04c.3-.01.59,0,.88.03.41.64.83,1.28,1.25,1.93-3.17-.21-4.85,2.6-7.39,3.59-1.77.68-3.6,1.78-5.7,1.23-.9-.45-1.57-1.05-1.45-2.18.1-.46.34-.84.7-1.14,2.63-.91,5.6-1.16,7.44-3.68,1.5-1.33,2.81.74,4.27.24Z"/>
      <path class="cls-5" d="m41.92,33.91c5.19-3.16,10.55-2.41,15.95-.71-.03.35-.06.69-.09,1.04-5.24-2.53-10.57-.27-15.86-.33Z"/>
      <path class="cls-12" d="m54,80.05c.31.59.61,1.17.92,1.76-.28.06-.56.13-.84.2-1.78.02-3.22-.33-3.01-2.63.12-1.33-.15-2.31-1.83-1.54-.69-.61-1.37-1.22-2.06-1.83.06-.98.65-1.73,1.07-2.56,1.66-5.11-.07-9.64-2.38-14.08-.06-.77,0-1.52.2-2.27.15-.5.4-.95.73-1.35,1.33-.97,2.84-.96,4.38-.81.97.14,1.87.49,2.62,1.13.16.17.31.34.47.51.25.38.43.79.55,1.22.11.42.17.85.21,1.27.07,1.04.33,2.02,1.06,2.83,1.86,2.44,4.86,3.93,5.91,7.05,1.18,2.1,1.39,4.81,3.87,6.08-1.31,1.83-2.46-.45-3.71-.15-3.43-.35-4.23-4.63-7.56-5.05-.44,3.41-.52,6.81-.61,10.21Z"/>
      <path class="cls-18" d="m47.13,56.08c-.06.28-.12.57-.17.86-.44.21-.89.21-1.33,0-1.14-.67-2.3-1.42-3.09-2.45-2.57-3.32-5.27-3.84-8.37-.78-.77.12-1.48,0-2.15-.42-.42-.46-.39-.88.09-1.27,2.44-4.46,5.69-8.17,10.03-10.89,3.88-.97,7.71-2.54,11.82-1.07,3.42,1.45,8.31,1.19,8.08,6.91-.35.34-.69.67-1.04,1.01-.38.34-.8.38-1.24.13-1.7-2.58-4.18-3.92-7.17-4.41-.91-.44-1.82-.67-2.78-.07-.4.17-.8.28-1.22.36-.83.14-1.66.13-2.48.22-1.33.15-2.82.27-3.43,1.62-.7,1.56.8,2.34,1.64,3.28,1.2,1.36,2.67,2.5,3.34,4.28.12.46.15.93.1,1.41-.15.45-.36.88-.64,1.26Z"/>
      <path class="cls-16" d="m46.86,59.09c3.25,3.91,3.66,8.49,3.18,13.3-.1.97,0,2-1.17,2.45-2.22-2.64-.03-6.17-1.7-8.95-5.06,2-5.02,5.14-2.25,8.94-.88.35-2.26,1.25-2.57.97-3.54-3.17-8.81-4.93-9.24-10.76.18-.14.36-.29.53-.43,6.38,2.36,6.59,2.27,11.21-4.48.21-.41.48-.78.8-1.12.42-.3.82-.25,1.2.08Z"/>
      <path class="cls-37" d="m44.93,74.83c-.94-.61-1.84-1.3-2.83-1.82-2.23-1.18-2.37-2.55-.43-4.08,2.25-1.78,3.98-5.96,6.45-5.15,2.27.75.57,4.96.89,7.63.14,1.12-.08,2.28-.14,3.43-.57.39-1.13.78-1.7,1.17-.92-.06-1.78-.25-2.25-1.18Z"/>
      <path class="cls-21" d="m32.11,52.04c.05.36.09.72.14,1.08,2.04,2.97.56,6.48,1.51,9.62.07.86-.17,1.64-.69,2.33,0,0,.05-.02.05-.02-.8-.18-1.84-.44-1.84-1.29-.02-3.92-1.3-7.95.84-11.71Z"/>
      <path class="cls-17" d="m53.96,40.08c-4.04-.73-7.85.99-11.82,1.06,3.79-1.97,7.64-3.35,11.82-1.06Z"/>
      <path class="cls-26" d="m62,68.96c-2.37-2.29-4.73-4.59-7.1-6.88-.97-2.68,1.03-3.08,2.77-3.27,2.53-.27,5.14-.58,7.59.57.22.22.44.44.66.66.42,3.73-.19,7.01-3.93,8.91Z"/>
      <path class="cls-37" d="m61.19,49.23c4.56.63,4.85,1.11,4.72,7.67-.21.21-.42.43-.63.65-3.8,1.01-7.58,1.69-11.17-.66v.03c.55-4.23,3.53-6.22,7.08-7.7Z"/>
      <path class="cls-19" d="m61.19,49.23c-2.36,2.57-4.72,5.13-7.09,7.7-.66-.37-1.32-.74-1.98-1.11-.21-.44-.23-.89-.07-1.35,2.15-2.68,3.92-5.82,7.7-6.59.42.04.84.08,1.25.12.06.41.12.82.19,1.23Z"/>
      <path class="cls-23" d="m54,58.98c.02-.35.05-.69.07-1.04,3.89-1.3,8.03.51,11.9-.98,0,0-.06-.05-.06-.05.96.13,1.94.3,1.94,1.55,0,1.23-.94,1.46-1.92,1.58,0,0-.01.02-.01.02-3.86-1.64-8.05.38-11.92-1.08Z"/>
      <path class="cls-36" d="m54.15,67.14c3.09,2.15,5.52,4.98,8.01,7.75-1.24,4.36-4.66,4.25-8.15,4-.7-3.93-1-7.85.14-11.75Z"/>
      <path class="cls-28" d="m54.15,67.14c-.05,3.92-.09,7.83-.14,11.75,0,.39-.01.77-.02,1.16-1.53-4.32-2.12-8.63.16-12.91Z"/>
      <path class="cls-22" d="m33.1,63.17c-2.2-3.19-.75-6.69-.84-10.06.63-.04,1.26-.07,1.89-.11.86.75,1.01,1.91,1.61,2.81,3.02,1.98,6.43.38,9.58,1.06.22.04.44.07.66.11.32.02.64,0,.95-.04-.03.72-.06,1.43-.1,2.15,0,0-.47-.02-.47-.02h-.46c-2.97,2.53-6.96.09-10.02,2.1-.9.73-1.35,2.08-2.81,2.01Z"/>
      <path class="cls-23" d="m52.21,54.78c-.03.35-.07.7-.1,1.04-1.66.09-3.33.17-4.99.26-.04-.35-.07-.71-.11-1.06,2.08-1.73,1.52-4.14,1.64-6.37.1-1.94-.18-3.95,1.25-5.58.18-.74.11-1.8,1.24-1.61.36.06.56.99.84,1.52.03.23.07.46.11.69.25,3.47.13,6.94.09,10.41.01.23.02.46.03.69Z"/>
      <path class="cls-32" d="m54,58.98c3.95.58,8.12-1.2,11.92,1.08-2.6-.01-5.21-.01-7.81-.05-1.54-.02-3,.02-3.2,2.06-1.41-.71-1.07-1.93-.91-3.09Z"/>
      <path class="cls-13" d="m65.97,56.96c-3.82,2.15-7.94.56-11.9.98.01-.35.03-.7.04-1.04,3.95.02,7.91.04,11.86.07Z"/>
      <path class="cls-38" d="m47.07,53.9c-1.36-1.43-2.77-2.82-4.05-4.32-1.01-1.19-3.34-2.15-2.49-3.82.82-1.6,2.78-2.73,4.94-2.72,1.15,0,2.3.02,3.45.04,1.22,3.19.42,6.48.46,9.73.02,1.43-.9,2.07-2.31,1.1Z"/>
      <path class="cls-38" d="m59.74,47.88c-2.51,2.3-5.02,4.6-7.53,6.9,0,0-.02.12-.02.12-1.27-3.94-.72-7.92-.26-11.9,0,0,.06,0,.06,0,3.68-.1,7.35-.2,7.76,4.89Z"/>
      <path class="cls-34" d="m34.11,56.82c.01-1.27.02-2.54.03-3.81,4.04-4.96,6.68-4.07,11.86,3.98,0,0,.01.01.01.01-3.98.64-7.95,1.04-11.9-.18Z"/>
      <path class="cls-30" d="m47.07,53.9c3.16-.63,1.65-3.14,1.85-4.85.22-1.97.02-3.98,0-5.98.33-.03.66-.03.99,0,.04,2.91,0,5.82.13,8.72.1,2.22-.69,3.39-3.03,3.23.02-.37.04-.75.06-1.12Z"/>
      <path class="cls-25" d="m33.1,63.17c1.2-.68.88-1.95,1.14-2.99,3.88-1.15,7.76-1.06,11.64-.05-.94,3.76-4.43,5.37-6.76,7.95-1.06,1.18-2.15.3-2.78-.71-.8-1.26-1.4-2.63-3.27-2.32,0-.63.02-1.26.03-1.89Z"/>
      <path class="cls-29" d="m45.88,60.14c-3.88.01-7.76.03-11.65.05,3.69-2.57,7.8-.65,11.69-1.11-.02.35-.03.71-.05,1.06Z"/>
      <path class="cls-14" d="m34.11,56.82c3.97.06,7.94.12,11.9.18-3.99,1.52-7.97,1.8-11.9-.18Z"/>
      <path class="cls-19" d="m51.93,43c.09,3.97.17,7.93.26,11.9-2.06-3.92-1.62-7.9-.26-11.9Z"/>
    </g>
  </g>
</svg>